<svg xmlns="http://www.w3.org/2000/svg" viewBox="0 0 252.05 284.79"><defs><style>.cls-1{fill:#4fa0d1;}.cls-2{fill:#fff;}.cls-3{fill:#004c72;}.cls-4{fill:#50a1d1;}.cls-5,.cls-6{fill:none;stroke-miterlimit:10;stroke-width:0.75px;}.cls-5{stroke:#4fa0d1;}.cls-6{stroke:#004c72;}</style></defs><title>Asset 35</title><g id="Layer_2" data-name="Layer 2"><g id="Layer_18" data-name="Layer 18"><polygon class="cls-1" points="251.49 259.79 224.35 283 221.87 280.09 245.8 259.62 221.78 236.38 224.44 233.63 251.49 259.79"/><path class="cls-1" d="M235.41,75.14A117.15,117.15,0,0,1,215.94,192.8l-4.18-4.18-.14-.13A111.16,111.16,0,0,0,232.21,84.38Z" transform="translate(0 -0.22)"/><path class="cls-2" d="M232.21,84.38a111.16,111.16,0,0,1-20.59,104.11l-4.29-4.41a104.94,104.94,0,0,0,21.3-89.36Z" transform="translate(0 -0.22)"/><path class="cls-1" d="M235.41,75.14l-3.2,9.24c-.74-2.37-1.57-4.7-2.46-7l3-8.58C233.67,70.87,234.56,73,235.41,75.14Z" transform="translate(0 -0.22)"/><path class="cls-2" d="M232.21,84.38l-3.58,10.34c-.6-2.71-1.3-5.38-2.11-8l3.23-9.34C230.64,79.67,231.46,82,232.21,84.38Z" transform="translate(0 -0.22)"/><path class="cls-1" d="M228.62,94.72a104.94,104.94,0,0,1-21.3,89.36l-3.83-3.92a99.19,99.19,0,0,0,22.18-62.62,100.76,100.76,0,0,0-.73-12.15Z" transform="translate(0 -0.22)"/><path class="cls-1" d="M230,63.32l-2.8,8.1c-.85-1.86-1.77-3.7-2.71-5.51l2.67-7.71Q228.67,60.73,230,63.32Z" transform="translate(0 -0.22)"/><path class="cls-1" d="M228.62,94.72l-3.68,10.67q-.59-4.8-1.62-9.44l3.19-9.24C227.32,89.33,228,92,228.62,94.72Z" transform="translate(0 -0.22)"/><path class="cls-2" d="M227.24,71.42l-3,8.67q-1.17-3.06-2.53-6l2.81-8.14C225.47,67.72,226.38,69.56,227.24,71.42Z" transform="translate(0 -0.22)"/><path class="cls-1" d="M227.19,58.21l-2.67,7.71A111.35,111.35,0,0,0,126,6.3l-1.13,0-2.37-6c1.16,0,2.32-.06,3.49-.06A117.38,117.38,0,0,1,227.19,58.21Z" transform="translate(0 -0.22)"/><path class="cls-1" d="M224.94,105.39a100.76,100.76,0,0,1,.73,12.15,99.19,99.19,0,0,1-22.18,62.62l-3.26-3.34Z" transform="translate(0 -0.22)"/><path class="cls-1" d="M224.94,105.39l-24.71,71.43-3.61-3.7,26.7-77.17Q224.34,100.59,224.94,105.39Z" transform="translate(0 -0.22)"/><path class="cls-2" d="M224.52,65.91l-2.81,8.14A105.28,105.28,0,0,0,127.3,12.44l-2.41-6.12,1.13,0A111.35,111.35,0,0,1,224.52,65.91Z" transform="translate(0 -0.22)"/><path class="cls-1" d="M224.23,80.09l-2.89,8.35c-.69-2.26-1.46-4.49-2.3-6.67l2.67-7.71Q223.06,77,224.23,80.09Z" transform="translate(0 -0.22)"/><polygon class="cls-1" points="222.95 246.16 217.95 273.02 212.35 273.02 207.31 246.16 212.35 246.16 214.31 257.37 215.21 263.61 216.07 257.41 218.08 246.16 222.95 246.16"/><path class="cls-1" d="M221.71,74.06,219,81.77A99.83,99.83,0,0,0,129.55,18l-1.5-3.59-.75-1.92A105.28,105.28,0,0,1,221.71,74.06Z" transform="translate(0 -0.22)"/><path class="cls-1" d="M221.34,88.45l-28.09,81.22-8.91-9.13L124.8,17.9l1.22,0c1.18,0,2.36,0,3.53.07A99.83,99.83,0,0,1,219,81.77C219.88,84,220.65,86.19,221.34,88.45Z" transform="translate(0 -0.22)"/><path class="cls-1" d="M211.76,188.62l4.18,4.18c-.94,1.12-1.89,2.22-2.87,3.31l-4.31-4.31q1.46-1.63,2.86-3.31Z" transform="translate(0 -0.22)"/><path class="cls-2" d="M207.33,184.08l4.29,4.41q-1.4,1.68-2.86,3.31l-.11-.11-4.18-4.28Q205.93,185.78,207.33,184.08Z" transform="translate(0 -0.22)"/><path class="cls-1" d="M206.22,196.4l3.48,3.26c-1.08,1.1-2.18,2.19-3.3,3.23L203,199.66l-.95-1q1.69-1.59,3.31-3.23Z" transform="translate(0 -0.22)"/><path class="cls-1" d="M203.49,180.16l3.83,3.92q-1.4,1.69-2.85,3.32l-3.82-3.91C201.63,182.4,202.57,181.28,203.49,180.16Z" transform="translate(0 -0.22)"/><path class="cls-1" d="M203,199.66l3.45,3.23a117.08,117.08,0,0,1-162-1.19l2.11-2,2.28-2.25A111,111,0,0,0,202,198.69Z" transform="translate(0 -0.22)"/><rect class="cls-1" x="200.94" y="246.17" width="5.04" height="26.76"/><path class="cls-1" d="M200.23,176.81l3.26,3.34c-.92,1.13-1.86,2.25-2.83,3.34l-2-2.07Z" transform="translate(0 -0.22)"/><path class="cls-1" d="M197.23,187.18l3.81,3.91c-1.08,1.09-2.18,2.17-3.31,3.23l-2.63-2.69,1.22-3.52Z" transform="translate(0 -0.22)"/><polygon class="cls-1" points="196.62 172.89 200.23 176.59 198.64 181.21 195.03 177.51 196.62 172.89"/><path class="cls-1" d="M195.11,191.62l2.63,2.69c-1.65,1.54-3.35,3-5.1,4.47Z" transform="translate(0 -0.22)"/><path class="cls-1" d="M196.8,186.74l.43.44-.9.92Z" transform="translate(0 -0.22)"/><path class="cls-1" d="M193.19,183l3.61,3.7-.47,1.36c-.79.78-1.59,1.55-2.4,2.3l-2.43-2.48Z" transform="translate(0 -0.22)"/><path class="cls-1" d="M196.32,188.1l-1.22,3.52-1.18-1.22C194.74,189.65,195.54,188.88,196.32,188.1Z" transform="translate(0 -0.22)"/><path class="cls-1" d="M193.92,190.41l1.18,1.22-2.47,7.16c-.42.35-.84.69-1.27,1l-2.19-5.23C190.81,193.24,192.38,191.85,193.92,190.41Z" transform="translate(0 -0.22)"/><rect class="cls-1" x="190.99" y="235" width="3.83" height="49.41"/><path class="cls-1" d="M191.5,187.92l2.43,2.48c-1.54,1.44-3.12,2.83-4.75,4.17L182.6,178.8l8.74,9,.12.28Z" transform="translate(0 -0.22)"/><polygon class="cls-1" points="184.34 160.31 193.25 169.44 191.66 174.05 188.9 171.23 184.34 160.31"/><polygon class="cls-1" points="186.51 175.99 193.19 182.82 191.5 187.7 191.34 187.54 186.51 175.99"/><path class="cls-1" d="M189.17,194.57l2.19,5.23a104.91,104.91,0,0,1-138.25-6.63L57,189.34a99.47,99.47,0,0,0,132.19,5.23Z" transform="translate(0 -0.22)"/><polygon class="cls-1" points="186.51 175.99 191.34 187.54 182.6 178.58 177.78 167.03 186.51 175.99"/><path class="cls-1" d="M182.6,178.8l6.58,15.77A99.47,99.47,0,0,1,57,189.34l17-16.86,52-51.66Z" transform="translate(0 -0.22)"/><polygon class="cls-1" points="184.65 246.09 184.65 272.91 184.2 272.91 179.44 254.83 183.83 246.09 184.65 246.09"/><polygon class="cls-2" points="184.2 272.91 184.21 272.93 178.87 272.93 178.86 272.91 184.2 272.91"/><polygon class="cls-2" points="183.99 245.75 183.83 246.09 178.79 246.09 178.95 245.75 183.99 245.75"/><polygon class="cls-1" points="177.78 167.03 182.6 178.58 125.99 120.6 73.96 172.26 73.03 171.32 73.03 166.68 126.05 114.04 177.78 167.03"/><polygon class="cls-3" points="176.71 152.5 181.26 163.41 172.53 154.46 167.97 143.54 176.71 152.5"/><polygon class="cls-1" points="175.66 260.81 178.86 272.91 174.35 272.91 174.35 263.33 175.66 260.81"/><polygon class="cls-1" points="178.79 246.09 174.35 254.83 174.35 246.09 178.79 246.09"/><path class="cls-3" d="M120.49,18l56.22,134.69-8.74-9L115.65,18.42C117.26,18.25,118.87,18.12,120.49,18Z" transform="translate(0 -0.22)"/><rect class="cls-2" x="169.23" y="272.91" width="5.12" height="0.02"/><rect class="cls-2" x="169.23" y="245.75" width="5.12" height="0.33"/><polygon class="cls-3" points="167.97 143.54 172.53 154.46 126.08 106.88 73.03 159.55 73.03 153.41 126.14 100.68 167.97 143.54"/><path class="cls-1" d="M169.23,246.3v26.83H162c4.44-.78,5.25-3.8,5.58-8.45l-5.12-.47c-.17,4-.3,4.73-2.64,4.73s-2.65-1-2.65-3.51V253.66c0-2.47.79-3.39,2.52-3.39,2.52,0,2.56,1.13,2.65,4.47l5.21-.43c-.25-4.44-1.14-7-4-8Z" transform="translate(0 -0.22)"/><path class="cls-3" d="M115.65,18.42,168,143.76,126.13,100.9,73,153.63V33.17A99,99,0,0,1,115.65,18.42Z" transform="translate(0 -0.22)"/><path class="cls-2" d="M163.6,246.3h-7.42a10.67,10.67,0,0,1,3.63-.55A11,11,0,0,1,163.6,246.3Z" transform="translate(0 -0.22)"/><path class="cls-2" d="M162,273.13l-.13,0h-4.48l-.12,0Z" transform="translate(0 -0.22)"/><path class="cls-2" d="M157.44,273.15h4.48a14.78,14.78,0,0,1-2.41.18A11.49,11.49,0,0,1,157.44,273.15Z" transform="translate(0 -0.22)"/><path class="cls-1" d="M157.32,273.13h-5.76l-5-26.83h9.66c-2.8,1-4.14,3.39-4.14,7.4v11.5C152,270.07,153.9,272.47,157.32,273.13Z" transform="translate(0 -0.22)"/><polygon class="cls-2" points="151.56 272.91 151.57 272.93 146.49 272.93 146.48 272.91 151.56 272.91"/><polygon class="cls-2" points="146.45 245.67 146.53 246.09 140.69 246.09 140.76 245.67 146.45 245.67"/><polygon class="cls-1" points="145.58 267.98 146.48 272.91 140.68 272.91 141.58 267.98 145.58 267.98"/><polygon class="cls-1" points="144.28 257.82 145.19 264.03 142.02 264.03 143.01 257.82 143.67 253.57 144.28 257.82"/><polygon class="cls-1" points="140.69 246.09 135.69 272.91 134.38 272.91 134.38 246.09 140.69 246.09"/><rect class="cls-2" x="135.69" y="272.91" width="4.99" height="0.02"/><rect class="cls-2" x="129.26" y="272.91" width="5.12" height="0.02"/><rect class="cls-2" x="129.26" y="245.75" width="5.12" height="0.33"/><path class="cls-1" d="M128.05,14.36l1.5,3.59c-1.17,0-2.35-.07-3.53-.07l-1.22,0L124,16l-1.38-3.51q1.69-.05,3.39-.05h1.28Z" transform="translate(0 -0.22)"/><rect class="cls-1" x="124.23" y="260.12" width="5.04" height="12.79"/><rect class="cls-1" x="124.23" y="246.08" width="5.04" height="9.52"/><path class="cls-2" d="M124.89,6.32l2.41,6.12H126q-1.69,0-3.39.05l-2.37-6C121.8,6.38,123.34,6.34,124.89,6.32Z" transform="translate(0 -0.22)"/><path class="cls-1" d="M122.52.28l2.37,6c-1.55,0-3.09.05-4.63.13L117.92.51C119.45.41,121,.33,122.52.28Z" transform="translate(0 -0.22)"/><rect class="cls-2" x="119.1" y="272.91" width="5.12" height="0.02"/><rect class="cls-2" x="119.1" y="245.75" width="5.12" height="0.33"/><path class="cls-3" d="M118.28,12.72,120.49,18c-1.62.09-3.23.22-4.84.39l-2.19-5.23C115.06,13,116.66,12.84,118.28,12.72Z" transform="translate(0 -0.22)"/><polygon class="cls-1" points="119.1 246.09 119.1 272.91 117.76 272.91 112.71 246.09 119.1 246.09"/><path class="cls-2" d="M115.8,6.78l2.48,5.94c-1.62.12-3.22.27-4.81.47L111,7.32C112.6,7.11,114.19,6.93,115.8,6.78Z" transform="translate(0 -0.22)"/><polygon class="cls-3" points="117.76 272.91 117.76 272.93 112.76 272.93 112.75 272.91 117.76 272.91"/><polygon class="cls-3" points="112.71 246.09 117.76 272.91 112.75 272.91 112.7 272.64 112.7 246.09 112.71 246.09"/><path class="cls-3" d="M113.35.91l2.45,5.87c-1.6.15-3.2.33-4.78.55l-2.43-5.81C110.17,1.29,111.75,1.08,113.35.91Z" transform="translate(0 -0.22)"/><path class="cls-3" d="M113.47,13.18l2.19,5.23A99,99,0,0,0,73,33.17V26.79A104.41,104.41,0,0,1,113.47,13.18Z" transform="translate(0 -0.22)"/><path class="cls-2" d="M111,7.32l2.45,5.86A104.41,104.41,0,0,0,73,26.79v-7A110.32,110.32,0,0,1,111,7.32Z" transform="translate(0 -0.22)"/><polygon class="cls-4" points="112.7 272.64 112.75 272.91 112.7 272.91 112.7 272.64"/><path class="cls-3" d="M112.7,246.3v26.56l-.84-4.59h-3.93l-.9,4.87h-4.91l5-26.84Zm-1.23,18.08-.9-6.11-.59-4.19-.65,4.19-1,6.11Z" transform="translate(0 -0.22)"/><path class="cls-3" d="M108.59,1.52,111,7.32A110.32,110.32,0,0,0,73,19.76V12.89A116.45,116.45,0,0,1,108.59,1.52Z" transform="translate(0 -0.22)"/><polygon class="cls-3" points="103.31 246.16 103.31 250.61 98.69 250.61 98.69 272.93 93.69 272.93 93.69 250.61 89.02 250.61 89.02 246.16 103.31 246.16"/><path class="cls-3" d="M88.3,253.82v1.59c0,3.81-1.11,5.64-3.12,6.5l3,11.24H83l-2.82-10.55H78.81v10.55h-5V246.39h6.67C85.48,246.39,88.3,247.54,88.3,253.82Zm-5,1.67v-1.75c0-2.19-.26-3.16-2.78-3.16H78.81v8h1.76C83,258.62,83.3,257.89,83.3,255.49Z" transform="translate(0 -0.22)"/><path class="cls-1" d="M73,171.54l.93.94L57,189.34q-1.67-1.6-3.25-3.28l14.62-14.52Z" transform="translate(0 -0.22)"/><polygon class="cls-1" points="73.03 166.68 73.03 171.32 68.35 171.32 73.03 166.68"/><polygon class="cls-3" points="73.03 153.41 73.03 159.55 67.77 164.78 67.77 158.63 73.03 153.41"/><path class="cls-3" d="M73,33.17V153.63l-5.26,5.22V36.72Q70.34,34.87,73,33.17Z" transform="translate(0 -0.22)"/><path class="cls-3" d="M73,26.79v6.38q-2.69,1.69-5.26,3.55V30.09C69.49,28.94,71.24,27.84,73,26.79Z" transform="translate(0 -0.22)"/><path class="cls-2" d="M73,19.76v7c-1.79,1-3.54,2.15-5.26,3.3V22.82Q70.35,21.22,73,19.76Z" transform="translate(0 -0.22)"/><path class="cls-3" d="M73,12.89v6.87q-2.67,1.45-5.26,3.06V15.74C69.5,14.74,71.25,13.79,73,12.89Z" transform="translate(0 -0.22)"/><path class="cls-3" d="M67.4,246.3l5,26.84h-5l-.9-4.87H62.6l-.9,4.87H56.79l5-26.84Zm-1.25,18.08-.9-6.11-.6-4.19L64,258.27l-1,6.11Z" transform="translate(0 -0.22)"/><polygon class="cls-3" points="63.13 163.24 63.13 169.38 61.18 171.32 57.87 171.32 57.87 168.46 63.13 163.24"/><path class="cls-3" d="M63.13,40.29V163.46l-5.26,5.22V44.89C59.57,43.3,61.33,41.76,63.13,40.29Z" transform="translate(0 -0.22)"/><path class="cls-3" d="M63.13,33.37v6.92c-1.8,1.47-3.56,3-5.26,4.61V37.58C59.58,36.12,61.33,34.71,63.13,33.37Z" transform="translate(0 -0.22)"/><path class="cls-2" d="M63.13,25.84v7.53c-1.8,1.34-3.55,2.75-5.26,4.21V29.69C59.59,28.35,61.34,27.07,63.13,25.84Z" transform="translate(0 -0.22)"/><path class="cls-3" d="M63.13,18.54v7.3c-1.79,1.23-3.54,2.51-5.26,3.84V22.1C59.59,20.87,61.35,19.68,63.13,18.54Z" transform="translate(0 -0.22)"/><path class="cls-3" d="M61.18,171.54,50.34,182.31q-1.42-1.67-2.78-3.39l10.31-10.24v2.86Z" transform="translate(0 -0.22)"/><path class="cls-3" d="M58.11,253.82v1.8c0,6.28-2.9,7.44-7.95,7.44H48.41v10.09h-5V246.39h6.8C55.26,246.39,58.11,247.54,58.11,253.82Zm-5,2v-2.05c0-2.19-.3-3.16-2.82-3.16H48.41v8.33h1.88C52.77,258.91,53.07,258.19,53.07,255.79Z" transform="translate(0 -0.22)"/><path class="cls-3" d="M57.87,44.89V168.68L47.56,178.92a99.48,99.48,0,0,1,10.31-134Z" transform="translate(0 -0.22)"/><path class="cls-3" d="M57.87,37.58v7.31a99.48,99.48,0,0,0-10.31,134l-3.89,3.86a104.94,104.94,0,0,1,14.2-145.2Z" transform="translate(0 -0.22)"/><path class="cls-2" d="M57.87,29.69v7.89a104.94,104.94,0,0,0-14.2,145.2l-4.36,4.34A111.07,111.07,0,0,1,57.87,29.69Z" transform="translate(0 -0.22)"/><path class="cls-3" d="M57.87,22.1v7.59A111.07,111.07,0,0,0,39.31,187.12l-1.47,1.45-2.92,2.79a117.16,117.16,0,0,1,23-169.26Z" transform="translate(0 -0.22)"/><path class="cls-1" d="M57,189.34l-3.87,3.83c-1.1-1.07-2.2-2.15-3.25-3.27l3.87-3.84Q55.32,187.74,57,189.34Z" transform="translate(0 -0.22)"/><path class="cls-3" d="M50.34,182.31l-3.87,3.84c-1-1.1-1.89-2.23-2.8-3.37l3.89-3.86Q48.92,180.64,50.34,182.31Z" transform="translate(0 -0.22)"/><path class="cls-1" d="M48.78,197.49l-2.28,2.25-2.11,2c-1.1-1.07-2.2-2.16-3.25-3.27l2.2-2.05,2.19-2.17C46.57,195.33,47.67,196.42,48.78,197.49Z" transform="translate(0 -0.22)"/><path class="cls-2" d="M46.47,186.15l-4.35,4.33q-1.44-1.65-2.8-3.36l4.36-4.34C44.58,183.92,45.51,185,46.47,186.15Z" transform="translate(0 -0.22)"/><path class="cls-3" d="M42.11,190.48l-1.23,1.22-3.15,3q-1.44-1.64-2.81-3.34l2.92-2.79,1.47-1.45Q40.68,188.82,42.11,190.48Z" transform="translate(0 -0.22)"/><path class="cls-3" d="M41.31,253.1l-5,.47c-.13-2.19-.65-3-2.35-3s-2.36.94-2.36,2.19c0,1.54,1,2.35,3.81,4.57,3.63,3,6.24,4.87,6.24,9.07s-2.05,6.88-7.73,6.88c-6.2,0-7.57-3.24-7.74-8l5.13-.64c.13,3.75.64,4.27,2.78,4.27s2.48-1,2.48-2.48c0-1.84-1.29-2.73-4.45-5.3s-5.55-4.52-5.55-8.16c0-4.79,2.82-6.8,7.27-6.8C39.17,246.17,40.8,248.39,41.31,253.1Z" transform="translate(0 -0.22)"/><polygon class="cls-3" points="27.61 233.63 30.27 236.38 6.25 259.62 30.18 280.09 27.69 283 0.56 259.79 27.61 233.63"/><rect class="cls-5" x="190.99" y="235" width="3.83" height="49.41"/><polygon class="cls-6" points="30.27 236.38 27.61 233.63 0.56 259.79 27.69 283 30.18 280.09 6.25 259.62 30.27 236.38"/><polygon class="cls-5" points="224.44 233.63 221.78 236.38 245.8 259.62 221.87 280.09 224.35 283 251.49 259.79 224.44 233.63"/></g></g></svg>