<?xml version="1.0" encoding="utf-8"?>
<!-- Generator: Adobe Illustrator 21.0.0, SVG Export Plug-In . SVG Version: 6.00 Build 0)  -->
<svg version="1.1"
	 id="svg2" xmlns:cc="http://creativecommons.org/ns#" xmlns:dc="http://purl.org/dc/elements/1.1/" xmlns:rdf="http://www.w3.org/1999/02/22-rdf-syntax-ns#" xmlns:svg="http://www.w3.org/2000/svg"
	 xmlns="http://www.w3.org/2000/svg" xmlns:xlink="http://www.w3.org/1999/xlink" x="0px" y="0px" viewBox="0 0 805.7 236"
	 style="enable-background:new 0 0 805.7 236;" xml:space="preserve">
<style type="text/css">
	.st0{fill:#28282A;}
	.st1{fill:#4A9DD7;}
	.st2{fill:#FFFFFF;}
</style>
<polygon class="st0" points="176.8,156.5 176.8,84.8 114.7,49 52.7,84.8 52.7,156.5 114.7,192.3 "/>
<path id="path24" class="st1" d="M149.2,83.8l-46.3,26.7l11.8,6.8L161,90.6L149.2,83.8"/>
<path id="path26" class="st1" d="M131.9,73.9l-46.3,26.7l11.8,6.8l46.3-26.7L131.9,73.9"/>
<path id="path28" class="st1" d="M114.7,63.9L68.4,90.6l11.8,6.8l46.3-26.7L114.7,63.9"/>
<path id="path30" class="st1" d="M129.3,168.7v-53.4l-11.8,6.8v53.4L129.3,168.7"/>
<path id="path32" class="st1" d="M112,175.5v-53.4l-11.8-6.8v53.4L112,175.5"/>
<path id="path34" class="st1" d="M146.5,158.7v-53.4l-11.8,6.8v53.4L146.5,158.7"/>
<path id="path36" class="st1" d="M163.7,148.8V95.4l-11.8,6.8v53.4L163.7,148.8"/>
<path id="path38" class="st1" d="M94.8,165.6v-53.4L83,105.3v53.4L94.8,165.6"/>
<path id="path40" class="st1" d="M77.5,155.6v-53.4l-11.8-6.8v53.4L77.5,155.6"/>
<path id="path42" class="st2" d="M333.5,171.3c-16,0-28.3-4.5-36.7-13.4c-8.4-8.9-12.6-21.6-12.6-38c0-8.2,1.3-15.5,3.8-21.9
	c2.6-6.4,6.1-11.8,10.5-16.2c4.5-4.4,9.8-7.8,16-10c6.2-2.3,12.9-3.4,20.1-3.4c4.2,0,8,0.3,11.4,0.9s6.4,1.3,9,2.1
	c2.6,0.8,4.7,1.6,6.4,2.5c1.7,0.9,2.9,1.5,3.7,2l-6.4,17.9c-3-1.6-6.6-3-10.6-4.1c-4-1.1-8.6-1.7-13.7-1.7c-3.4,0-6.8,0.6-10,1.7
	c-3.3,1.1-6.2,3-8.7,5.5c-2.5,2.5-4.5,5.8-6.1,9.8c-1.5,4-2.3,8.8-2.3,14.5c0,4.6,0.5,8.8,1.5,12.7c1,3.9,2.6,7.3,4.8,10.2
	c2.2,2.8,5.2,5.1,8.8,6.8c3.6,1.7,8,2.5,13.1,2.5c3.2,0,6.1-0.2,8.7-0.6c2.6-0.4,4.8-0.8,6.8-1.4c2-0.5,3.7-1.1,5.3-1.8
	c1.5-0.7,2.9-1.3,4.1-1.9l6.1,17.8c-3.1,1.9-7.5,3.6-13.2,5.1C347.6,170.6,341,171.3,333.5,171.3"/>
<path id="path44" class="st2" d="M434,111.1c4-6.7,7.8-13.4,11.4-20.2c3.6-6.7,6.9-13.5,10-20.3h24.5c-5.4,10.6-11,20.9-16.8,30.9
	c-5.8,10-11.9,20-18.4,30.1v37.7h-22.2v-37.5c-6.5-10.1-12.6-20.1-18.4-30.2c-5.8-10.1-11.5-20.4-16.9-31.1H413
	c3,6.8,6.3,13.6,9.8,20.3C426.3,97.7,430.1,104.4,434,111.1"/>
<path id="path46" class="st2" d="M544.3,171.3c-16,0-28.3-4.5-36.7-13.4c-8.4-8.9-12.6-21.6-12.6-38c0-8.2,1.3-15.5,3.8-21.9
	c2.6-6.4,6.1-11.8,10.5-16.2c4.5-4.4,9.8-7.8,16-10c6.2-2.3,12.9-3.4,20.1-3.4c4.2,0,8,0.3,11.4,0.9c3.4,0.6,6.4,1.3,9,2.1
	c2.6,0.8,4.7,1.6,6.4,2.5c1.7,0.9,2.9,1.5,3.7,2l-6.4,17.9c-3-1.6-6.6-3-10.6-4.1c-4-1.1-8.6-1.7-13.7-1.7c-3.4,0-6.8,0.6-10,1.7
	c-3.3,1.1-6.2,3-8.7,5.5c-2.5,2.5-4.5,5.8-6.1,9.8c-1.5,4-2.3,8.8-2.3,14.5c0,4.6,0.5,8.8,1.5,12.7c1,3.9,2.6,7.3,4.8,10.2
	c2.2,2.8,5.2,5.1,8.8,6.8c3.6,1.7,8,2.5,13.1,2.5c3.2,0,6.1-0.2,8.7-0.6c2.6-0.4,4.8-0.8,6.8-1.4c2-0.5,3.7-1.1,5.3-1.8
	c1.5-0.7,2.9-1.3,4.1-1.9l6.1,17.8c-3.1,1.9-7.5,3.6-13.2,5.1C558.4,170.6,551.8,171.3,544.3,171.3"/>
<path id="path48" class="st2" d="M671.2,150.3v19.1h-66V70.6h22.2v79.6H671.2"/>
<path id="path50" class="st2" d="M699.1,169.3V70.6h66.7v18.7h-44.4v19.4h39.5v18.2h-39.5v23.8h47.7v18.7H699.1"/>
<path id="path22" class="st2" d="M176.8,156.5l-62,35.8l-62-35.8V84.8l62-35.8l62,35.8V156.5z M225.4,117.3l-18.1-9.6
	c-0.8-5.7-2.1-11.3-3.9-16.6l13.2-14.5c-4.7-11.1-11.3-21.3-19.2-30.2l-20.6,4.4c-3-2.7-6.3-5.2-9.6-7.5l0.8-20.4
	c-10.8-5.9-22.6-10.1-35.2-12.1l-12.9,16.6c-1.7-0.1-3.4-0.1-5.2-0.1c-1.7,0-3.5,0-5.2,0.1L96.6,10.7c-12.6,2.1-24.4,6.2-35.2,12.1
	l0.8,20.4c-3.4,2.3-6.6,4.8-9.6,7.5L32,46.3c-7.9,8.9-14.4,19.1-19.2,30.2L26,91.1c-1.8,5.3-3.1,10.9-3.9,16.6L4,117.3
	c0,0.9,0,1.8,0,2.7c0,10.6,1.5,20.9,4.3,30.7l18.7,2.6c2.6,7.1,6.1,13.8,10.3,20l-7.3,18c6.8,8.1,14.7,15.2,23.6,21l15.7-9.8
	c7.6,4.2,15.7,7.4,24.4,9.4l5.7,17.8c5,0.7,10.2,1.1,15.4,1.1c5.2,0,10.3-0.4,15.4-1.1l5.7-17.8c8.7-2,16.8-5.2,24.4-9.4l15.7,9.8
	c8.8-5.9,16.8-12.9,23.6-21l-7.3-18c4.2-6.2,7.7-12.9,10.3-20l18.7-2.6c2.8-9.7,4.3-20,4.3-30.7C225.5,119,225.5,118.1,225.4,117.3"
	/>
</svg>
