<svg id="color" xmlns="http://www.w3.org/2000/svg" viewBox="0 0 250 150"><defs><style>.cls-1{fill:#006ba6;}.cls-2{fill:#2ead4a;}.cls-3{fill:#30b44a;}</style></defs><title>SOMlogos_DTMB</title><g id="_11-dtmb_copy" data-name="11-dtmb copy"><path class="cls-1" d="M42.18,78.92l0.14-1.24L45,77.45v0l0.48-2.29L49.9,73l-4.43-1.5-4.85,3.06q0,3.31-.27,6.13Z"/><path class="cls-1" d="M57.83,73.66l1.69,0.83c0-.17,0-0.34,0-0.51Z"/><path class="cls-1" d="M37.62,105.41l-3.15-7.52A10.3,10.3,0,0,1,33.14,99q-3.42,2.44-9.65,2.44H20.43V72.27l-1.93-.45-8.42-3.28L5.14,64l9.7-5.6h2.6l3-2.5v-9.1h3.06q5.87,0,9.26,2t5.64,7.77a28.15,28.15,0,0,1,1.44,5.39l8.33-2.44,2.42,4.28,5.76-.75,3.19,9.48q-0.17-15-4.71-23.9Q50.09,39.49,42.23,36T21.81,32.61H2.5v83.13H24a69.83,69.83,0,0,0,8.12-.43Z"/><path class="cls-1" d="M89.21,47.91h16.68V32.61H55v15.3H71.27v59.17A104.53,104.53,0,0,1,89.21,95.39V47.91Z"/><path class="cls-1" d="M160,73.67l6.78-27.79V72.56q8.83-1.37,16.8-2.21V32.61H158L146.81,76.15q3.85-.8,7.91-1.55Q157.38,74.11,160,73.67Z"/><path class="cls-1" d="M121.79,45.88l7.67,34.37q6.69-1.79,14.17-3.43L133.51,32.61h-26.3V87.37q6.72-2.55,14.59-4.93V45.88Z"/><path class="cls-1" d="M235.75,70.8q9.53-4.37,9.54-16.73,0-7.83-3.38-13.09a15.41,15.41,0,0,0-8.37-6.81q-5-1.55-14.8-1.55H190.89V69.66C209.17,68.18,223.9,68.78,235.75,70.8Zm-27.65-25h7.11q7.35,0,9.59,2.9a10.5,10.5,0,0,1,2.24,6.61,11.83,11.83,0,0,1-2.24,7.11q-2.24,3.11-10.91,3.11h-5.8V45.82Z"/><path class="cls-2" d="M89.21,117.39V98.58a104.56,104.56,0,0,0-17.93,11.69v7.12H89.21Z"/><path class="cls-2" d="M137,117.39h13L160,76.85q-2.58.45-5.24,0.93-4.06.75-7.91,1.55L145,86.19,143.63,80q-7.49,1.63-14.17,3.43Z"/><path class="cls-2" d="M121.79,117.39V85.62q-7.87,2.37-14.59,4.94v26.84h14.59Z"/><path class="cls-2" d="M166.75,117.39h16.8V73.54q-8,.85-16.8,2.21v41.65Z"/><path class="cls-2" d="M218.74,117.39q10.16,0,15.69-1.82a18.13,18.13,0,0,0,9.3-7.3,23.09,23.09,0,0,0,3.77-13.42C247.5,80.65,243,76,235.75,74c-11.85-2-26.58-2.62-44.86-1.14v44.55h27.86Zm-1.85-35.45q6.22,0,9.3,2.43t3.08,8.36q0,10.67-12.37,10.67H208.1V81.94h8.79Z"/><path class="cls-3" d="M52.39,73.31L55,73.8l6.27,3.08,0.91,11.71-4.41,2.58L56.2,95.42l2.39,1.31,3.18-4.92,4.61-.62,2.05,6.3-1.12,9.92-7.41,8.27-7.24,1-0.16-.94L33.26,116l5.88-10.49-3.72-8.89L36.95,86l6.54-6.41,0.2-1.73,1.54,5.34,1.47-7,5.69-2.83h0Zm-0.5-1.07L45.3,70,34.42,76.88,35,73.4l-2.59,2.21-3.3,6.13-2.61-4.16,0.08-5.27-7.72-1.8-8.1-3.15L7.45,64.29l7.76-4.48h2.73l5.24-4.36,8.94,0.43-8.43,4.72L30.46,60l3.09,5.3L47.5,61.25l2.34,4.14,5.56-.72L58,72.3,52,71.18l-0.15,1.06h0Z"/></g></svg>