<?xml version="1.0" standalone="no"?>
<!DOCTYPE svg PUBLIC "-//W3C//DTD SVG 20010904//EN"
 "http://www.w3.org/TR/2001/REC-SVG-20010904/DTD/svg10.dtd">
<svg version="1.0" xmlns="http://www.w3.org/2000/svg"
 width="188.000000pt" height="188.000000pt" viewBox="0 0 188.000000 188.000000"
 preserveAspectRatio="xMidYMid meet">
<metadata>
Created by potrace 1.11, written by Peter Selinger 2001-2013
</metadata>
<g transform="translate(0.000000,188.000000) scale(0.100000,-0.100000)"
fill="#000000" stroke="none">
<path d="M695 1481 c-131 -132 -243 -237 -247 -235 -5 3 -7 1 -6 -4 2 -6 -59
-74 -134 -152 -76 -77 -138 -144 -138 -148 0 -5 16 -23 35 -42 19 -18 31 -38
28 -44 -3 -6 -2 -8 2 -3 12 10 126 -103 118 -117 -3 -6 -2 -7 2 -3 12 10 186
-163 178 -177 -3 -6 -3 -8 2 -4 11 10 146 -123 138 -135 -3 -6 -1 -7 4 -4 6 4
42 -26 80 -66 39 -39 97 -98 130 -130 l60 -59 58 61 c32 33 63 58 69 54 6 -3
7 -2 3 2 -10 11 393 416 406 408 6 -3 7 -2 4 4 -8 13 147 166 158 156 4 -4 5
-3 2 3 -4 6 11 28 33 48 22 20 40 42 40 49 0 7 -18 29 -40 50 -23 21 -38 43
-34 49 4 6 3 8 -3 5 -11 -7 -153 127 -153 144 0 5 -3 8 -7 7 -16 -4 -118 103
-115 120 2 12 0 13 -5 5 -6 -8 -74 53 -213 192 -112 113 -207 205 -210 205 -3
0 -113 -108 -245 -239z m559 -163 c-4 -6 -3 -8 3 -5 14 9 335 -311 327 -325
-4 -7 -2 -8 4 -4 10 6 52 -21 52 -34 0 -11 -165 -175 -172 -173 -5 2 -8 -1 -8
-6 0 -13 -107 -121 -120 -121 -5 0 -10 -5 -10 -10 0 -17 -342 -360 -353 -353
-6 3 -7 1 -4 -4 4 -6 -1 -17 -11 -26 -14 -13 -20 -13 -36 -2 -10 8 -15 19 -10
26 4 7 3 10 -4 5 -14 -8 -164 142 -156 156 4 6 2 8 -4 5 -5 -4 -123 106 -262
245 l-251 252 182 182 c101 101 187 180 193 177 6 -3 7 -2 3 2 -4 5 67 84 159
176 l166 166 159 -159 c92 -91 157 -164 153 -170z"/>
<path d="M920 945 l0 -365 25 0 25 0 0 365 0 365 -25 0 -25 0 0 -365z"/>
<path d="M607 1062 l-117 -117 120 -120 c100 -100 123 -118 137 -109 9 6 18
15 20 21 2 5 -42 54 -98 107 l-102 98 102 102 c98 98 101 103 83 119 -10 9
-21 17 -23 17 -2 0 -57 -53 -122 -118z"/>
<path d="M1130 1164 c-12 -13 1 -29 88 -117 l102 -102 -102 -102 c-88 -88
-100 -104 -89 -117 8 -9 19 -16 25 -16 6 0 63 52 126 115 l115 115 -120 120
c-66 66 -123 120 -126 120 -4 0 -12 -7 -19 -16z"/>
</g>
</svg>
