<?xml version="1.0" encoding="UTF-8"?>
<!DOCTYPE svg PUBLIC "-//W3C//DTD SVG 1.1//EN" "http://www.w3.org/Graphics/SVG/1.1/DTD/svg11.dtd">
<!-- Creator: CorelDRAW X6 -->
<svg xmlns="http://www.w3.org/2000/svg" xml:space="preserve" width="5.38889in" height="1.26389in" version="1.1" style="shape-rendering:geometricPrecision; text-rendering:geometricPrecision; image-rendering:optimizeQuality; fill-rule:evenodd; clip-rule:evenodd"
viewBox="0 0 5389 1264"
 xmlns:xlink="http://www.w3.org/1999/xlink">
 <defs>
  <style type="text/css">
   <![CDATA[
    .fil0 {fill:#363637;fill-rule:nonzero}
    .fil1 {fill:#B53438;fill-rule:nonzero}
   ]]>
  </style>
 </defs>
 <g id="Layer_x0020_1">
  <metadata id="CorelCorpID_0Corel-Layer"/>
  <path class="fil0" d="M1482 799l-73 0c-14,0 -24,-7 -24,-23 0,-15 10,-23 24,-23l195 0c14,0 24,7 24,23 0,15 -10,23 -24,23l-73 0 0 324c0,16 -9,26 -24,26 -15,0 -24,-10 -24,-26l0 -324z"/>
  <path class="fil0" d="M1805 981c0,-42 -24,-90 -77,-90 -60,-2 -81,46 -83,90l160 0zm-160 36c0,50 32,89 86,89 64,0 81,-40 99,-40 9,0 18,8 18,21 0,24 -60,60 -117,60 -93,0 -134,-72 -134,-149 0,-79 49,-149 131,-149 80,0 126,72 126,142 0,17 -6,26 -27,26l-182 0z"/>
  <path class="fil0" d="M2018 850c49,0 79,17 79,37 0,10 -8,20 -20,20 -19,0 -26,-15 -59,-15 -60,0 -84,58 -84,108 0,49 24,108 84,108 34,0 43,-16 58,-16 11,0 19,7 19,20 0,18 -27,38 -77,38 -89,0 -132,-72 -132,-149 0,-77 43,-149 132,-149z"/>
  <path class="fil0" d="M2329 963c0,-51 -36,-72 -68,-72 -32,0 -68,21 -68,72l0 159c0,16 -9,26 -24,26 -15,0 -24,-10 -24,-26l0 -376c0,-16 9,-26 24,-26 15,0 24,10 24,26l0 140 1 1c21,-27 52,-38 81,-38 45,0 102,29 102,111l0 162c0,16 -9,26 -24,26 -15,0 -24,-10 -24,-26l0 -159z"/>
  <path class="fil0" d="M2428 875c0,-16 9,-26 24,-26 15,0 24,10 24,26l0 12 1 1c21,-27 52,-38 81,-38 45,0 102,29 102,111l0 162c0,16 -9,26 -24,26 -15,0 -24,-10 -24,-26l0 -159c0,-51 -36,-72 -68,-72 -32,0 -68,21 -68,72l0 159c0,16 -9,26 -24,26 -15,0 -24,-10 -24,-26l0 -247z"/>
  <path class="fil0" d="M2836 1107c59,0 80,-58 80,-108 0,-49 -21,-108 -80,-108 -59,0 -80,58 -80,108 0,49 21,108 80,108zm0 -257c82,0 129,72 129,149 0,77 -46,149 -129,149 -82,0 -129,-72 -129,-149 0,-77 46,-149 129,-149z"/>
  <path class="fil0" d="M3061 1123c0,16 -9,26 -24,26 -15,0 -24,-10 -24,-26l0 -376c0,-16 9,-26 24,-26 15,0 24,10 24,26l0 376z"/>
  <path class="fil0" d="M3238 1107c59,0 80,-58 80,-108 0,-49 -21,-108 -80,-108 -59,0 -80,58 -80,108 0,49 21,108 80,108zm0 -257c82,0 129,72 129,149 0,77 -46,149 -129,149 -82,0 -129,-72 -129,-149 0,-77 46,-149 129,-149z"/>
  <path class="fil0" d="M3530 1107c59,0 80,-58 80,-108 0,-49 -21,-108 -80,-108 -59,0 -80,58 -80,108 0,49 21,108 80,108zm124 18c0,87 -53,140 -132,140 -50,0 -112,-29 -112,-53 0,-10 5,-23 20,-23 22,0 43,34 96,34 62,0 80,-48 80,-90l0 -25 -1 0c-15,25 -41,42 -74,42 -82,0 -129,-72 -129,-149 0,-77 46,-149 129,-149 31,0 62,19 74,37l1 0 0 -13c0,-17 13,-24 26,-24 9,0 23,7 23,24l0 251z"/>
  <path class="fil0" d="M3698 897c-6,-16 -7,-21 -7,-27 0,-12 11,-20 22,-20 12,0 21,8 24,18l67 201 1 0 66 -201c3,-10 11,-18 23,-18 11,0 22,8 22,20 0,5 -1,10 -7,27l-122 349c-4,10 -12,18 -24,18 -11,0 -22,-8 -22,-20 0,-5 1,-10 7,-27l31 -82 -82 -238z"/>
  <path class="fil1" d="M245 443c-87,0 -64,-100 -52,-162 12,-60 29,-159 112,-159 41,0 57,25 59,62 2,33 -5,79 -11,112 -11,58 -29,147 -108,147zm-238 -158c-5,24 -7,47 -7,69 0,120 68,215 204,215 24,0 48,-2 73,-9 3,75 43,102 118,102l68 -4 25 -127c-15,4 -30,6 -46,6 -20,0 -49,-4 -48,-28 82,-47 130,-141 146,-224 32,-164 -37,-290 -209,-290 -81,0 -150,23 -216,86 -58,56 -93,130 -107,203z"/>
  <path class="fil1" d="M773 562l13 -67 -2 0c-27,53 -86,76 -140,76 -34,0 -66,-8 -86,-32 -23,-29 -20,-66 -12,-105l56 -286 160 0 -49 250c-5,27 -12,55 25,55 16,0 33,-9 43,-24 10,-14 14,-28 17,-44l46 -238 160 0 -80 414 -152 0z"/>
  <path class="fil1" d="M1129 562l-161 0 80 -414 160 0 -80 414zm88 -455l-160 0 21 -110 161 0 -21 110z"/>
  <path class="fil1" d="M1602 406c-35,107 -123,164 -228,164 -60,0 -106,-14 -141,-57 -34,-42 -42,-98 -31,-157 24,-125 128,-216 255,-216 102,0 172,60 164,164l-144 12 0 -4c0,-28 0,-61 -36,-61 -51,0 -64,67 -71,104 -8,39 -19,102 34,102 35,0 54,-32 64,-62l136 11z"/>
  <polygon class="fil1" points="1965,290 2052,562 1884,562 1838,396 1788,448 1765,562 1605,562 1713,5 1874,5 1815,306 1859,259 1978,148 2118,148 "/>
  <path class="fil1" d="M2238 305c6,-38 29,-71 71,-71 45,0 52,31 45,71l-116 0zm105 108c-13,36 -37,50 -73,50 -49,0 -59,-33 -48,-77l277 0 4 -22c26,-136 -41,-225 -178,-225 -59,0 -126,20 -177,64 -47,40 -80,100 -91,156 -11,59 1,116 38,156 39,41 96,54 156,54 98,0 196,-46 241,-147l-150 -10z"/>
  <path class="fil1" d="M2737 148l-11 58 2 0c29,-47 81,-66 131,-66 39,0 81,11 99,44 19,34 10,81 2,124l-49 255 -160 0 49 -251c5,-25 12,-60 -23,-60 -45,0 -56,38 -63,72l-46 239 -161 0 81 -414 151 0z"/>
  <polygon class="fil1" points="3450,564 3058,564 3167,5 3339,5 3257,427 3476,427 "/>
  <path class="fil1" d="M3747 242c55,0 42,72 35,112 -22,111 -50,119 -79,119 -29,0 -55,-8 -33,-119 8,-40 23,-112 78,-112zm20 -102c-130,0 -245,86 -271,219 -24,126 60,212 187,212 127,0 245,-86 270,-212 26,-133 -56,-219 -186,-219z"/>
  <path class="fil1" d="M4236 377c-9,46 -20,97 -81,97 -25,0 -40,-11 -35,-38 10,-50 77,-63 117,-67l-2 8zm133 187c-7,-29 -1,-60 5,-91l28 -145c12,-59 28,-113 -19,-151 -35,-29 -96,-36 -145,-36 -94,0 -197,27 -242,130l146 14c12,-35 41,-46 73,-46 39,0 46,15 39,52l-1 3c-55,3 -113,10 -169,26 -61,18 -121,62 -134,128 -16,82 44,125 121,125 57,0 107,-18 149,-66 -4,20 -6,39 -6,58l155 0z"/>
  <path class="fil1" d="M4647 150l-11 59 2 0c29,-47 80,-67 131,-67 39,0 82,12 100,43 19,34 10,82 2,125l-50 256 -161 0 49 -252c5,-25 12,-60 -23,-60 -44,0 -56,38 -63,72l-47 240 -161 0 81 -416 153 0z"/>
  <path class="fil1" d="M4991 429c1,40 45,45 80,45 16,0 62,-2 67,-26 4,-21 -50,-25 -65,-27 -85,-12 -185,-29 -163,-140 9,-47 42,-84 85,-109 45,-25 93,-32 140,-32 78,0 155,30 167,108l-128 24c-7,-29 -37,-37 -65,-37 -13,0 -53,4 -56,22 -3,13 10,19 20,21 17,5 49,7 68,10 36,5 78,11 107,31 33,24 47,61 38,106 -22,115 -150,147 -243,147 -93,0 -172,-30 -185,-126l133 -17z"/>
  <path class="fil1" d="M5310 154c0,-21 18,-39 40,-39 22,0 40,18 40,39 0,22 -18,40 -40,40 -22,0 -40,-18 -40,-40zm8 0c0,18 14,32 33,32 18,0 33,-14 33,-32 0,-17 -15,-31 -33,-31 -18,0 -33,14 -33,31zm53 22l-8 0 -13 -20 -8 0 0 20 -7 0 0 -44 20 0c4,0 8,0 11,2 3,2 5,6 5,9 0,9 -6,12 -14,12l14 20zm-21 -26c6,0 15,1 15,-7 0,-6 -5,-6 -11,-6l-12 0 0 13 7 0z"/>
 </g>
</svg>
