<?xml version="1.0" encoding="utf-8"?>
<!-- Generator: Adobe Illustrator 21.0.0, SVG Export Plug-In . SVG Version: 6.00 Build 0)  -->
<svg version="1.1" id="Layer_1" xmlns="http://www.w3.org/2000/svg" xmlns:xlink="http://www.w3.org/1999/xlink" x="0px" y="0px"
	 viewBox="0 0 279.8 63.8" style="enable-background:new 0 0 279.8 63.8;" xml:space="preserve">
<style type="text/css">
	.st0{fill:#FFFFFF;}
</style>
<title>DELPHI_TagEng_CMYK</title>
<rect y="48.9" class="st0" width="1.9" height="14.7"/>
<path class="st0" d="M12.5,63.6v-6.6c0-1.6-0.6-2.5-2.3-2.5c-1,0.1-1.9,0.7-2.2,1.6c-0.3,0.9-0.4,1.8-0.4,2.7v4.9H5.8V53.1h1.5
	l0.1,1.6c0.6-1.2,1.9-1.9,3.2-1.8c2.4,0,3.6,1.4,3.6,3.8v6.9L12.5,63.6L12.5,63.6z"/>
<path class="st0" d="M24.6,63.6v-6.6c0-1.6-0.6-2.5-2.3-2.5c-1,0-1.9,0.7-2.3,1.6c-0.3,0.9-0.4,1.8-0.4,2.7v4.9h-1.7V53.1h1.5
	l0.1,1.6c0.6-1.2,1.9-1.9,3.2-1.8c2.4,0,3.6,1.4,3.6,3.8v6.9L24.6,63.6L24.6,63.6z"/>
<path class="st0" d="M35.7,55.1c-1.1-1-2.7-1-3.8,0c-0.7,0.9-1.1,2.1-1,3.2c-0.1,1.2,0.3,2.3,1,3.2c1.1,1,2.7,1,3.8,0
	c0.7-0.9,1.1-2.1,1-3.2C36.8,57.2,36.4,56,35.7,55.1 M37,62.6c-1.8,1.6-4.5,1.6-6.3,0c-1.1-1.2-1.6-2.7-1.5-4.3
	c-0.1-1.6,0.4-3.1,1.5-4.3c1.8-1.6,4.5-1.6,6.3,0c1.1,1.2,1.6,2.7,1.5,4.3C38.6,59.9,38.1,61.5,37,62.6"/>
<polygon class="st0" points="45.6,63.6 43.7,63.6 39.8,53.1 41.6,53.1 44.7,61.5 47.6,53.1 49.4,53.1 "/>
<path class="st0" d="M57.5,58.5l-2.8,0.2c-1,0.1-2.3,0.6-2.3,1.9c0,1,0.8,1.8,1.8,1.8c0.1,0,0.2,0,0.3,0c0.8,0,1.6-0.3,2.2-0.8
	c0.6-0.6,0.9-1.5,0.9-2.4V58.5z M59.1,63.7c-0.8,0-1.5-0.6-1.5-1.5c0,0,0-0.1,0-0.1l0,0c-0.7,1.1-2,1.8-3.4,1.7
	c-1.8,0.2-3.4-1.1-3.6-2.9c0-0.1,0-0.2,0-0.3c0-1.3,0.9-3.1,3.7-3.3l3.2-0.2v-0.8c0.1-0.6-0.1-1.2-0.5-1.6c-0.5-0.4-1.1-0.6-1.7-0.5
	c-0.7-0.1-1.4,0.2-1.9,0.6c-0.3,0.3-0.5,0.8-0.5,1.3h-1.8c0-0.8,0.3-1.6,0.9-2.1c0.9-0.8,2-1.2,3.2-1.1c2,0,3.2,0.9,3.7,2
	c0.2,0.5,0.3,1.1,0.3,1.6v5.1c0,0.6,0.2,0.7,0.6,0.7c0.2,0,0.3,0,0.5-0.1v1.3C59.9,63.7,59.5,63.8,59.1,63.7"/>
<path class="st0" d="M66.4,63.7c-1.4,0.2-2.7-0.8-2.9-2.2c0-0.2,0-0.4,0-0.6v-6.3h-2v-1.5h2v-2.7l1.8-0.5v3.1h3.1v1.5h-3.1v6.1
	c-0.1,0.7,0.3,1.3,1,1.4c0.1,0,0.3,0,0.4,0c0.6,0,1.2-0.1,1.8-0.2v1.5C67.8,63.6,67.1,63.7,66.4,63.7"/>
<path class="st0" d="M71,53.1h1.8v10.5H71V53.1z M70.9,48.6h2v2.1h-2C70.9,50.7,70.9,48.7,70.9,48.6z"/>
<path class="st0" d="M82.3,55.1c-1.1-1-2.7-1-3.8,0c-0.7,0.9-1.1,2.1-1,3.2c-0.1,1.2,0.3,2.3,1,3.2c1.1,1,2.7,1,3.8,0
	c0.7-0.9,1.1-2.1,1-3.2C83.4,57.2,83,56,82.3,55.1 M83.6,62.6c-1.8,1.6-4.5,1.6-6.3,0c-1.1-1.2-1.6-2.7-1.5-4.3
	c-0.1-1.6,0.4-3.1,1.5-4.3c1.8-1.6,4.5-1.6,6.3,0c1.1,1.2,1.6,2.7,1.5,4.3C85.2,59.9,84.6,61.5,83.6,62.6"/>
<path class="st0" d="M94.8,63.6v-6.6c0-1.6-0.6-2.5-2.3-2.5c-1,0-1.9,0.7-2.3,1.6c-0.3,0.9-0.4,1.8-0.4,2.7v4.9h-1.7V53.1h1.5
	l0.1,1.6c0.6-1.2,1.9-1.9,3.2-1.8c2.4,0,3.6,1.4,3.6,3.8v6.9L94.8,63.6L94.8,63.6z"/>
<path class="st0" d="M110.7,49.9c-0.8-0.1-1.4,0.5-1.5,1.2c0,0.1,0,0.1,0,0.2v1.8h3v1.5h-3v9h-1.8v-9h-1.9v-1.5h1.9v-1.9
	c0-1.6,1.3-2.8,2.9-2.8c0,0,0.1,0,0.1,0c0.7,0,1.3,0.1,1.9,0.2v1.5C111.8,50,111.3,49.9,110.7,49.9"/>
<path class="st0" d="M120.2,55.1c-1.1-1-2.7-1-3.8,0c-0.7,0.9-1.1,2.1-1,3.2c-0.1,1.2,0.3,2.3,1,3.2c1.1,1,2.7,1,3.8,0
	c0.7-0.9,1.1-2.1,1-3.2C121.3,57.2,120.9,56,120.2,55.1 M121.5,62.6c-1.8,1.6-4.5,1.6-6.3,0c-1.1-1.2-1.6-2.7-1.5-4.3
	c-0.1-1.6,0.4-3.1,1.5-4.3c1.8-1.6,4.5-1.6,6.3,0c1.1,1.2,1.6,2.7,1.5,4.3C123.1,59.9,122.6,61.5,121.5,62.6"/>
<path class="st0" d="M130.6,54.8c-0.7,0-1.5,0.3-2,0.8c-0.8,0.9-1.1,2.1-1,3.3v4.7H126V53.1h1.6l0.1,1.9c0.5-1.2,1.8-2,3.1-1.9
	c0.3,0,0.6,0,0.8,0.1v1.7C131.3,54.8,131,54.8,130.6,54.8"/>
<path class="st0" d="M144,63.7c-1.4,0.2-2.7-0.8-2.9-2.2c0-0.2,0-0.4,0-0.6v-6.3h-2v-1.5h2v-2.7l1.8-0.4v3.1h3.1v1.5h-3.1v6.1
	c-0.1,0.7,0.3,1.3,1,1.4c0.1,0,0.3,0,0.4,0c0.6,0,1.2-0.1,1.8-0.2v1.5C145.4,63.6,144.7,63.7,144,63.7"/>
<path class="st0" d="M155.3,63.6v-6.6c0-1.6-0.6-2.5-2.3-2.5c-1,0-1.9,0.7-2.3,1.6c-0.3,0.9-0.4,1.8-0.4,2.7v4.9h-1.8V48.7h1.8v5.8
	c0.7-1,1.8-1.7,3.1-1.7c2.4,0,3.6,1.4,3.6,3.8v6.9L155.3,63.6L155.3,63.6z"/>
<path class="st0" d="M166.7,55.3c-0.5-0.7-1.3-1-2.1-1c-1.6,0-2.9,1.3-2.9,2.9c0,0,0,0.1,0,0.1h5.6
	C167.4,56.6,167.1,55.9,166.7,55.3 M169.1,58.9h-7.4c0,1,0.3,1.9,1,2.6c1.1,1,2.7,1,3.9,0.1c0.3-0.3,0.5-0.7,0.6-1.1h1.7
	c-0.2,1-0.7,2-1.6,2.6c-0.8,0.5-1.7,0.8-2.7,0.8c-1.3,0-2.6-0.6-3.5-1.6c-0.9-1.1-1.3-2.5-1.3-3.9c0-1.2,0.2-2.3,0.8-3.3
	c0.8-1.4,2.4-2.2,4-2.2c1.2,0,2.4,0.5,3.2,1.3c0.9,1,1.4,2.3,1.3,3.7L169.1,58.9z"/>
<path class="st0" d="M184.8,50.6h-3.9v5.2h3.9c1.7,0,3-0.7,3-2.6S186.5,50.6,184.8,50.6 M187.7,63.6l-2.8-6.1h-4.1v6.1H179V48.9h5.8
	c1.4-0.1,2.7,0.4,3.7,1.3c0.8,0.8,1.2,1.9,1.2,3c0,1.1-0.4,2.1-1.1,2.9c-0.5,0.5-1.1,0.8-1.8,1l2.9,6.5L187.7,63.6L187.7,63.6z"/>
<path class="st0" d="M198.5,55.3c-0.5-0.7-1.3-1-2.1-1c-1.6,0-2.9,1.3-2.9,2.9c0,0,0,0.1,0,0.1h5.6
	C199.2,56.6,198.9,55.9,198.5,55.3 M200.9,58.9h-7.4c0,1,0.3,1.9,1,2.6c1.1,1,2.7,1,3.9,0.1c0.3-0.3,0.5-0.7,0.6-1.1h1.7
	c-0.2,1-0.7,2-1.6,2.6c-0.8,0.5-1.7,0.8-2.7,0.8c-1.3,0-2.6-0.5-3.4-1.5c-0.9-1.1-1.3-2.5-1.3-3.9c0-1.2,0.2-2.3,0.8-3.3
	c0.8-1.4,2.4-2.2,4-2.2c1.2,0,2.4,0.5,3.2,1.3c0.9,1,1.4,2.3,1.3,3.7L200.9,58.9z"/>
<path class="st0" d="M209.9,58.5l-2.8,0.2c-1.1,0.1-2.3,0.6-2.3,1.9c0,1,0.8,1.8,1.8,1.8c0.1,0,0.2,0,0.3,0c0.8,0,1.6-0.3,2.1-0.8
	c0.6-0.6,0.9-1.5,0.9-2.4V58.5z M211.5,63.7c-0.8,0-1.5-0.7-1.5-1.5c0,0,0-0.1,0-0.1l0,0c-0.7,1.1-2,1.8-3.4,1.7
	c-1.8,0.2-3.4-1.1-3.6-2.9c0-0.1,0-0.2,0-0.3c0-1.3,0.9-3.1,3.7-3.3l3.2-0.2v-0.8c0.1-0.6-0.1-1.2-0.5-1.6c-0.5-0.4-1.1-0.6-1.7-0.5
	c-0.7-0.1-1.4,0.2-1.9,0.6c-0.3,0.3-0.5,0.8-0.5,1.3h-1.7c0-0.8,0.3-1.6,0.9-2.1c0.9-0.8,2-1.2,3.2-1.1c2,0,3.2,0.9,3.7,2
	c0.2,0.5,0.3,1.1,0.3,1.6v5.1c0,0.6,0.2,0.7,0.6,0.7c0.2,0,0.3,0,0.4-0.1v1.3C212.3,63.7,211.9,63.8,211.5,63.7"/>
<path class="st0" d="M217.5,63.7c-1.5,0-2.2-0.9-2.2-2.6V48.7h1.8V61c-0.1,0.5,0.2,0.9,0.6,1.1c0.1,0,0.2,0,0.3,0c0.2,0,0.5,0,0.7,0
	v1.5C218.4,63.7,218,63.7,217.5,63.7"/>
<polygon class="st0" points="240.5,63.6 238.5,63.6 235.2,51.8 231.8,63.6 229.9,63.6 226.9,48.9 228.6,48.9 231,60.9 234.4,49.1 
	236,49.1 239.4,60.8 241.8,48.9 243.4,48.9 "/>
<path class="st0" d="M251.7,55.1c-1.1-1-2.7-1-3.8,0c-0.7,0.9-1.1,2.1-1,3.2c-0.1,1.2,0.3,2.3,1,3.2c1.1,1,2.7,1,3.8,0
	c0.7-0.9,1.1-2.1,1-3.2C252.8,57.2,252.4,56,251.7,55.1 M253,62.6c-1.8,1.6-4.5,1.6-6.3,0c-1.1-1.2-1.6-2.7-1.5-4.3
	c-0.1-1.6,0.4-3.1,1.5-4.3c1.8-1.6,4.5-1.6,6.3,0c1.1,1.2,1.6,2.7,1.5,4.3C254.6,59.9,254.1,61.5,253,62.6"/>
<path class="st0" d="M262.2,54.8c-0.7,0-1.5,0.3-2,0.8c-0.8,0.9-1.1,2.1-1,3.3v4.7h-1.7V53.1h1.6l0.2,1.9c0.6-1.2,1.8-2,3.1-1.9
	c0.3,0,0.6,0,0.8,0.1v1.7C262.8,54.8,262.5,54.8,262.2,54.8"/>
<path class="st0" d="M267.5,63.7c-1.5,0-2.2-0.9-2.2-2.6V48.7h1.8V61c-0.1,0.5,0.2,0.9,0.6,1.1c0.1,0,0.3,0,0.4,0c0.2,0,0.5,0,0.7,0
	v1.5C268.4,63.7,268,63.7,267.5,63.7"/>
<path class="st0" d="M277,55c-0.5-0.4-1.1-0.7-1.7-0.7c-2.3,0-3,2.1-3,4s0.6,4,3,4c0.6,0,1.2-0.2,1.7-0.7c0.8-0.9,1.3-2.1,1.2-3.3
	C278.3,57.1,277.8,55.9,277,55 M278.3,63.6l-0.1-1.4c-0.7,1.1-1.9,1.7-3.1,1.7c-1.1,0.1-2.2-0.4-3-1.1c-1-1.2-1.6-2.8-1.5-4.3
	c-0.1-1.6,0.5-3.3,1.6-4.5c0.8-0.7,1.8-1.1,2.9-1c1.2,0,2.3,0.5,3,1.5v-5.7h1.8v14.9L278.3,63.6L278.3,63.6z"/>
<path class="st0" d="M17.3,26.4h14.1c18.9,0,33.1-3.3,33.1-13s-14.3-13-33.1-13H17.3V26.4z M157.5,26.4h10.7v-6.8h7.7
	c12.2,0,21.4-2.6,21.4-9.5s-9.2-9.6-21.4-9.6h-18.3V26.4z M102.6,16.4v-6H80.6C82.9,7,90.1,6,98.2,6c4.6,0,9.1,0.4,13.6,1.2l1.2-5.8
	C107.9,0.5,102.8,0,97.7,0C82.8,0,68.8,3.8,68.8,13.4s14,13.4,28.9,13.4c5.1,0,10.3-0.5,15.3-1.4c0,0-1.2-5.8-1.2-5.8
	c-4.5,0.8-9,1.1-13.6,1.2c-8.1,0-15.3-0.9-17.6-4.4L102.6,16.4L102.6,16.4z M233.8,26.4h10.7V0.4h-10.7v9.9h-21V0.4h-10.6v25.9h10.7
	v-9.9h21L233.8,26.4L233.8,26.4z M130.1,0.4h-10.9v25.9h33v-6.1h-22.1V0.4z M31.5,6.7c12.4,0,22.1,1.4,22.1,6.7s-9.6,6.7-22.1,6.7
	H28V6.7C28,6.7,31.5,6.7,31.5,6.7z M251.5,0.4v25.9h11V0.4C262.5,0.4,251.5,0.4,251.5,0.4z M176,6.4c6.3,0,10.1,1,10.1,3.5
	s-3.8,3.5-10.1,3.5h-7.8v-7L176,6.4L176,6.4z"/>
</svg>
