<?xml version="1.0" encoding="utf-8"?>
<!-- Generator: Adobe Illustrator 21.0.0, SVG Export Plug-In . SVG Version: 6.00 Build 0)  -->
<svg version="1.1" id="svgSignature" xmlns="http://www.w3.org/2000/svg" xmlns:xlink="http://www.w3.org/1999/xlink" x="0px"
	 y="0px" viewBox="0 0 298 59" style="enable-background:new 0 0 298 59;" xml:space="preserve">
<style type="text/css">
	.st0{fill:#FFFFFF;}
	.st1{font-family:'MyriadPro-Regular';}
	.st2{font-size:13px;}
	.st3{font-size:10px;}
	.st4{fill:none;stroke:#FFFFFF;stroke-width:0.5051;}
	.st5{fill:#004F39;}
</style>
<text transform="matrix(1 0 0 1 166.9131 19.5001)" class="st0 st1 st2">Master of Science</text>
<text transform="matrix(1 0 0 1 166.9131 33.5001)" class="st0 st1 st2">in Business Analytics</text>
<text transform="matrix(1 0 0 1 166.9131 47.3001)" class="st0 st1 st3">Broad College of Business</text>
<line class="st4" x1="159.5" y1="58.5" x2="159.5" y2="0"/>
<g transform="matrix(1 0 0 1 0 7.01205)">
	<path class="st5" d="M2.4,28.7v5.6c0,0.9,0.3,2.2,1.9,2.2c1.5,0,2-1,2-2.4l0-5.5c0-0.3-0.2-0.5-0.3-0.6h1.5
		c-0.2,0.1-0.3,0.3-0.3,0.6l0,5.4c0,2.3-1.3,3.1-3,3.1c-1.5,0-3.4-0.7-3.4-3v-5.5c0-0.3-0.2-0.5-0.4-0.6h2.4
		C2.6,28.2,2.4,28.4,2.4,28.7z"/>
	<path class="st5" d="M23.8,28.7c0-0.3-0.1-0.5-0.3-0.6h1.4c-0.2,0.1-0.3,0.3-0.3,0.6v8.8c0,0-6.1-7.5-6.1-7.6v6.7
		c0,0.3,0.1,0.5,0.4,0.6h-1.4c0.2-0.1,0.3-0.3,0.3-0.6v-7.1c0-0.5,0-0.5-0.2-0.8c-0.1-0.2-0.3-0.3-0.6-0.5h2.2l4.7,5.8
		C23.8,34,23.8,28.7,23.8,28.7z"/>
	<path class="st5" d="M37.2,28.1c-0.2,0.1-0.3,0.3-0.3,0.6v7.9c0,0.3,0.1,0.5,0.3,0.6h-2.3c0.2-0.1,0.3-0.3,0.3-0.6v-7.9
		c0-0.3-0.1-0.5-0.3-0.6C34.9,28.1,37.2,28.1,37.2,28.1z"/>
	<path class="st5" d="M52.6,28.8c0.1-0.3,0.1-0.5-0.3-0.7h1.5c-0.3,0.2-0.4,0.3-0.5,0.6c-0.2,0.5-3.3,8.7-3.3,8.7s-3.3-8.2-3.5-8.7
		c-0.1-0.3-0.3-0.5-0.7-0.6h2.8c-0.3,0.1-0.4,0.4-0.3,0.7c0,0.1,2.1,5.6,2.1,5.6S52.5,28.9,52.6,28.8z"/>
	<path class="st5" d="M67.9,29.3c-0.2-0.3-0.5-0.5-1-0.5c-0.4,0-2.1,0-2.1,0v3.1h1.9c0.2,0,0.4-0.2,0.5-0.4v1.4
		c-0.1-0.2-0.3-0.4-0.5-0.4h-1.9v3.9c0.3,0,1,0.1,1.6,0.1c1.1,0,1.6,0,2.1-0.8l-0.3,1.5h-5.4c0.2-0.1,0.4-0.3,0.4-0.6v-7.9
		c0-0.3-0.2-0.5-0.4-0.6h5.1L67.9,29.3z"/>
	<path class="st5" d="M81.7,32.6c0.9,0.1,1.2,0.7,1.4,1c0,0,1.5,2.5,2,3.1c0.2,0.3,0.8,0.5,0.8,0.5l-1.6,0c-0.5,0-0.9-0.3-1.1-0.6
		c-0.6-0.8-1.1-1.8-1.6-2.6c-0.3-0.5-0.6-1.1-1.2-1.1c-0.2,0-0.6,0-0.6,0v3.6c0,0.3,0.1,0.5,0.4,0.6h-2.3c0.2-0.1,0.3-0.3,0.3-0.6
		v-7.9c0-0.3-0.1-0.5-0.3-0.6h2.7c2.6,0,3.2,1.3,3.2,2.2C83.8,31.8,82.6,32.5,81.7,32.6z M79.8,28.8v3.5c0,0,0.4,0,0.6,0
		c0.9,0,1.8-0.5,1.8-1.8c0-0.6-0.4-1.7-1.6-1.7C80.2,28.7,79.8,28.8,79.8,28.8z"/>
	<path class="st5" d="M99.7,34.5c0,1.7-1.4,2.8-2.9,2.8c-1.1,0-2-0.4-2.4-0.6l-0.1-2.2c0.2,1,1,2.2,2.3,2.2c1.2,0,1.6-0.9,1.6-1.6
		c0-1.3-1.1-1.5-2.2-2.1c-1.2-0.7-1.7-1.4-1.7-2.4c0-1.8,1.6-2.5,2.8-2.5c0.4,0,1.3,0.1,1.9,0.5l0.1,2c-0.2-0.7-0.9-1.8-2.1-1.8
		c-1,0-1.3,0.7-1.3,1.3c0,0.8,0.5,1.1,1.7,1.7C98.5,32.2,99.7,32.6,99.7,34.5z"/>
	<path class="st5" d="M111.9,28.1c-0.2,0.1-0.3,0.3-0.3,0.6v7.9c0,0.3,0.1,0.5,0.3,0.6h-2.3c0.2-0.1,0.3-0.3,0.3-0.6v-7.9
		c0-0.3-0.1-0.5-0.3-0.6C109.6,28.1,111.9,28.1,111.9,28.1z"/>
	<path class="st5" d="M125.6,28.8v7.8c0,0.3,0.1,0.5,0.3,0.6h-2.3c0.2-0.1,0.3-0.3,0.3-0.6v-7.8c-0.9,0-2,0.1-2,0.1
		c-0.3,0-0.5,0.3-0.6,0.5v-1.3h6.9v1.3c-0.1-0.2-0.3-0.5-0.6-0.5C127.7,28.9,126.5,28.8,125.6,28.8z"/>
	<path class="st5" d="M144.2,28.1c-0.4,0.1-0.7,0.5-0.8,0.8l-2,4.1v3.6c0,0.3,0.2,0.5,0.4,0.6h-2.5c0.2-0.1,0.4-0.3,0.4-0.6V33
		l-2.5-4.3c-0.2-0.3-0.3-0.5-0.7-0.6h2.9c-0.3,0.1-0.5,0.2-0.2,0.8l1.8,3.3l1.7-3.4c0.2-0.3,0.1-0.6-0.3-0.7
		C142.4,28.1,144.2,28.1,144.2,28.1z"/>
	<path class="st5" d="M10.2,7.2h3c-0.3,0.2-0.5,0.4-0.5,0.8V19c0,0.4,0.2,0.7,0.5,0.8H10c0.3-0.2,0.5-0.4,0.5-0.8V9.7
		c0-0.2,0-0.4,0-0.4l-0.2,0.4L6.2,20.1L1.9,10L1.8,9.5c0,0,0,0.3,0,0.5v9c0,0.4,0.2,0.7,0.5,0.8H0.3c0.3-0.2,0.5-0.4,0.5-0.8V8.1
		c0-0.4-0.3-0.7-0.6-0.8h3.1l3.5,8.5L10.2,7.2z"/>
	<path class="st5" d="M19.2,7.2c-0.3,0.2-0.5,0.4-0.5,0.8V19c0,0.4,0.2,0.7,0.5,0.8H16c0.3-0.2,0.5-0.4,0.5-0.8V8.1
		c0-0.4-0.2-0.7-0.5-0.8C16,7.2,19.2,7.2,19.2,7.2z"/>
	<path class="st5" d="M32.6,10.9c-1.1-2.6-3.1-2.8-4-2.8c-3,0-4.7,2.3-4.7,5.3c0,2.5,1.2,5.7,4.8,5.7c0.8,0,2.8-0.3,4-2.8
		c0-0.1-0.2,2.7-0.2,2.7c-1.5,0.9-3,1.2-4.5,1.2c-3.4,0-6.5-2.5-6.5-6.4c0-3.2,2.3-6.5,6.7-6.5c1.4,0,2.8,0.3,4.1,1
		C32.5,8,32.7,10.9,32.6,10.9z"/>
	<path class="st5" d="M42.9,7.2h3.2c-0.3,0.2-0.5,0.4-0.5,0.8V19c0,0.4,0.2,0.7,0.5,0.8h-3.2c0.3-0.2,0.5-0.4,0.5-0.8v-5.7h-5.5V19
		c0,0.4,0.2,0.7,0.5,0.8h-3.2c0.3-0.2,0.5-0.4,0.5-0.8V8.1c0-0.4-0.2-0.7-0.5-0.8h3.2c-0.3,0.2-0.5,0.4-0.5,0.8v4.3h5.5V8.1
		C43.4,7.7,43.2,7.4,42.9,7.2z"/>
	<path class="st5" d="M52.1,7.2c-0.3,0.2-0.5,0.4-0.5,0.8V19c0,0.4,0.2,0.7,0.5,0.8h-3.2c0.3-0.2,0.5-0.4,0.5-0.8V8.1
		c0-0.4-0.2-0.7-0.5-0.8C48.9,7.2,52.1,7.2,52.1,7.2z"/>
	<path class="st5" d="M65.4,8l0.1,2.9C64.6,8.4,62.4,8,61.6,8c-3,0-4.7,2.3-4.7,5.3c0,2.5,1.2,5.7,4.8,5.7c0.4,0,1.4,0,2.2-0.6v-3.2
		c0-0.4-0.2-0.7-0.5-0.9h3.1c-0.3,0.2-0.5,0.4-0.5,0.9v2.7c0,0.4,0.2,0.7,0.3,0.8c-1.5,0.9-4,1.3-5.4,1.3c-3.5,0-6.6-2.5-6.6-6.4
		c0-3.2,2.3-6.5,6.8-6.5C62.7,7,64,7.4,65.4,8z"/>
	<path class="st5" d="M78.2,18.9c0.2,0.4,0.3,0.6,0.9,0.9h-3.8c0.5-0.3,0.5-0.5,0.4-0.9c-0.1-0.2-0.5-1.3-1-2.6h-4.3
		c-0.5,1.3-0.9,2.3-1,2.6c-0.2,0.4-0.1,0.7,0.4,0.9h-2.4c0.5-0.3,0.6-0.6,0.8-0.9c0.3-0.7,4.9-12.1,4.9-12.1S77.9,18.2,78.2,18.9z
		 M74.4,15.4c-0.8-2.1-1.8-4.5-1.8-4.5s-1.2,3.1-1.8,4.5H74.4z"/>
	<path class="st5" d="M89,8.1c0-0.4-0.2-0.7-0.5-0.8h1.9C90.2,7.4,90,7.7,90,8.1v12.3c0,0-8.4-10.5-8.4-10.6V19
		c0,0.4,0.2,0.7,0.5,0.8h-1.9c0.3-0.2,0.5-0.4,0.5-0.8V9.1c0-0.7,0-0.7-0.3-1.2c-0.2-0.2-0.4-0.5-0.8-0.7h3l6.5,8.1V8.1z"/>
	<path class="st5" d="M104.9,16.1c0,2.3-1.9,3.9-4.1,3.9c-1.6,0-2.8-0.6-3.4-0.9L97.3,16c0.3,1.3,1.4,3.1,3.2,3.1
		c1.7,0,2.3-1.3,2.3-2.2c0-1.8-1.5-2-3.1-2.9c-1.6-0.9-2.3-1.9-2.3-3.3c0-2.5,2.2-3.5,3.8-3.5c0.6,0,1.8,0.1,2.6,0.7l0.1,2.7
		c-0.2-1-1.2-2.5-2.9-2.5c-1.3,0-1.9,1-1.9,1.8c0,1.1,0.8,1.6,2.4,2.3C103.2,12.9,104.9,13.5,104.9,16.1z"/>
	<path class="st5" d="M111.9,8.2V19c0,0.4,0.2,0.7,0.5,0.8h-3.1c0.3-0.2,0.5-0.4,0.5-0.8V8.2c-1.3,0-2.8,0.1-2.8,0.1
		c-0.4,0-0.7,0.4-0.9,0.7V7.2h9.6V9c-0.2-0.3-0.4-0.7-0.8-0.7C114.7,8.3,113.1,8.2,111.9,8.2z"/>
	<path class="st5" d="M124.7,18.9c0.2,0.4,0.3,0.6,0.9,0.9h-3.8c0.5-0.3,0.5-0.5,0.4-0.9c-0.1-0.2-0.5-1.3-1-2.6h-4.3
		c-0.5,1.3-0.9,2.3-1,2.6c-0.2,0.4-0.1,0.7,0.4,0.9h-2.4c0.5-0.3,0.6-0.6,0.8-0.9c0.3-0.7,4.9-12.1,4.9-12.1S124.4,18.2,124.7,18.9z
		 M120.8,15.4c-0.8-2.1-1.8-4.5-1.8-4.5s-1.2,3.1-1.8,4.5H120.8z"/>
	<path class="st5" d="M130.1,8.2V19c0,0.4,0.2,0.7,0.5,0.8h-3.1c0.3-0.2,0.5-0.4,0.5-0.8V8.2c-1.3,0-2.8,0.1-2.8,0.1
		c-0.4,0-0.7,0.4-0.9,0.7V7.2h9.6V9c-0.2-0.3-0.4-0.7-0.8-0.7C133,8.3,131.4,8.2,130.1,8.2z"/>
	<path class="st5" d="M142.8,8.9c-0.3-0.5-0.7-0.6-1.4-0.7c-0.5,0-3,0-3,0v4.2h2.6c0.2,0,0.5-0.3,0.6-0.5v2
		c-0.1-0.3-0.4-0.5-0.6-0.5h-2.6v5.4c0.3,0.1,1.4,0.1,2.3,0.1c1.5,0,2.2,0,2.9-1.2l-0.4,2.1h-7.5c0.3-0.2,0.5-0.4,0.5-0.8V8.1
		c0-0.4-0.2-0.7-0.5-0.8h7L142.8,8.9z"/>
	<rect x="0.2" y="23.1" class="st5" width="143.7" height="1"/>
</g>
</svg>
