<?xml version="1.0" encoding="utf-8"?>
<!-- Generator: Adobe Illustrator 21.0.0, SVG Export Plug-In . SVG Version: 6.00 Build 0)  -->
<svg version="1.1" id="Layer_1" xmlns="http://www.w3.org/2000/svg" xmlns:xlink="http://www.w3.org/1999/xlink" x="0px" y="0px"
	 viewBox="0 0 709.8 251.2" style="enable-background:new 0 0 709.8 251.2;" xml:space="preserve">
<style type="text/css">
	.st0{fill-rule:evenodd;clip-rule:evenodd;fill:#000222;}
	.st1{fill-rule:evenodd;clip-rule:evenodd;fill:#DD1100;}
	.st2{fill-rule:evenodd;clip-rule:evenodd;fill:#FFFFFF;}
	.st3{fill-rule:evenodd;clip-rule:evenodd;}
	.st4{fill:#FFFFFF;}
</style>
<g>
	<g>
		<path class="st0" d="M143.3,96.4c-4.8-4.8-14.5-10.9-14.5-10.9s-1.9-11.2-3.2-15.4c8.7-8.4,10-9.6,18.3-17.7
			C144.5,68.4,144.2,76.7,143.3,96.4z"/>
		<path class="st0" d="M150,130.1c-5.8,1.6-6.4,1.9-12.2,3.5c-6.1-3.5-11.6-5.5-16.7-4.8c0.6-3.2,1.6-5.5,2.6-8.3
			C134.6,118.8,142.6,124.6,150,130.1z"/>
		<path class="st0" d="M238.6,125.6c0,30-11.9,58.7-33.1,79.9c-6.1,6.1-12.8,11.4-19.9,15.9c0,0,0,0,0,0l-38.8-48.3l32.1,3.5
			c0,0,15.4,1.6,18.9,0c3.2-1.3,20.6-25.7,20.6-25.7s-49.8-31.5-66.8-48.8c1.9-29.2-2.2-68.1-2.2-67.8c-12.5,12.5-14.1,14.5-26.7,26
			c-5.5-17.7-8-23.8-13.5-41.4c-16.4,13.5-28.9,36.3-37.9,63c-2,2.2-3.9,4.5-5.7,6.9c-1.2,1.6-2.4,3.3-3.6,5
			c-2.4,3.4-4.7,7.1-7,10.8c-1.6,2.7-3.1,5.4-4.6,8.2c-10.4,19.6-19,42.1-26.4,62.3c0-0.1-0.1-0.2-0.1-0.2
			c-7.4-15.2-11.3-32-11.3-49.3c0-30,11.9-58.8,33.1-80s50-33.1,79.9-33.1c30,0,58.8,11.9,80,33.1
			C226.7,66.8,238.6,95.6,238.6,125.6z"/>
		<path class="st1" d="M143.3,96.4c-4.8-4.8-14.5-10.9-14.5-10.9s-1.9-11.2-3.2-15.4c8.7-8.4,10-9.6,18.3-17.7
			C144.5,68.4,144.2,76.7,143.3,96.4z"/>
		<path class="st1" d="M150,130.1c-5.8,1.6-6.4,1.9-12.2,3.5c-6.1-3.5-11.6-5.5-16.7-4.8c0.6-3.2,1.6-5.5,2.6-8.3
			C134.6,118.8,142.6,124.6,150,130.1z"/>
		<path class="st1" d="M238.6,125.6c0,30-11.9,58.7-33.1,79.9c-6.1,6.1-12.8,11.4-19.9,15.9c0,0,0,0,0,0l-38.8-48.3l32.1,3.5
			c0,0,15.4,1.6,18.9,0c3.2-1.3,20.6-25.7,20.6-25.7s-49.8-31.5-66.8-48.8c1.9-29.2-2.2-68.1-2.2-67.8c-12.5,12.5-14.1,14.5-26.7,26
			c-5.5-17.7-8-23.8-13.5-41.4c-16.4,13.5-28.9,36.3-37.9,63c-2,2.2-3.9,4.5-5.7,6.9c-1.2,1.6-2.4,3.3-3.6,5
			c-2.4,3.4-4.7,7.1-7,10.8c-1.6,2.7-3.1,5.4-4.6,8.2c-10.4,19.6-19,42.1-26.4,62.3c0-0.1-0.1-0.2-0.1-0.2
			c-7.4-15.2-11.3-32-11.3-49.3c0-30,11.9-58.8,33.1-80s50-33.1,79.9-33.1c30,0,58.8,11.9,80,33.1
			C226.7,66.8,238.6,95.6,238.6,125.6z"/>
		<path class="st2" d="M143.3,96.4c-4.8-4.8-14.5-10.9-14.5-10.9s-1.9-11.2-3.2-15.4c8.7-8.4,10-9.6,18.3-17.7
			C144.5,68.4,144.2,76.7,143.3,96.4z"/>
		<path class="st2" d="M150,130.1c-5.8,1.6-6.4,1.9-12.2,3.5c-6.1-3.5-11.6-5.5-16.7-4.8c0.6-3.2,1.6-5.5,2.6-8.3
			C134.6,118.8,142.6,124.6,150,130.1z"/>
		<path class="st3" d="M150,130.1c-5.8,1.6-6.4,1.9-12.2,3.5c-6.1-3.5-11.6-5.5-16.7-4.8c0.6-3.2,1.6-5.5,2.6-8.3
			C134.6,118.8,142.6,124.6,150,130.1z"/>
		<path class="st0" d="M23.8,174.9c0,0.1,0.1,0.2,0.1,0.2c7.4-20.2,16-42.7,26.4-62.3C39.9,132.3,31.2,154.7,23.8,174.9z
			 M146.8,173.1l38.8,48.3c0,0,0,0,0,0L146.8,173.1z"/>
		<path class="st3" d="M214.4,36.8C190.8,13.2,158.9,0,125.6,0C92.3,0,60.3,13.2,36.8,36.8C13.2,60.3,0,92.3,0,125.6
			c0,33.3,13.2,65.2,36.8,88.8c23.6,23.6,55.5,36.8,88.8,36.8c33.3,0,65.3-13.2,88.8-36.8c23.5-23.5,36.8-55.5,36.8-88.8
			C251.2,92.3,237.9,60.3,214.4,36.8z M165.7,231.9c-69.3,25-119.3-21.1-130-37.2c0-0.1,0.1-0.3,0.1-0.4
			c9.6-40.7,21.5-89.3,40.6-103.7c10-17.4,12.9-43.1,30.8-56.5c4.5,13.5,11.6,41.4,16.4,54.9c21.2,21.2,53.3,47.5,74.8,58.5
			c2.2,1.3,5.1,10.3,5.1,10.3l-8.7,10.9l-92.5-9.3c-2.1-0.2-4.1-0.2-6.2-0.2c-5.9,0-12,0.7-19.2,1.8c4.5-11.2,14.1-20.2,14.1-20.2
			s-9-5.5-15.7-6.4c1.9-4.5,7.1-10.3,8.4-11.9c-2.6,0.9-21.2,9.3-23.1,16.4c9,2.2,15.4,5.1,15.4,5.1s-9.9,10-11.9,27.3
			c0,0,29.6-4.5,51.7-1.6c0.6,0.3,0.9,0.3,1.3,0.3l11.6,0.3l36.7,61.1L165.7,231.9C165.8,231.9,165.8,231.9,165.7,231.9z M125.6,70
			c8.7-8.4,10-9.6,18.3-17.7c0.6,16,0.3,24.4-0.6,44c-4.8-4.8-14.5-10.9-14.5-10.9S126.9,74.2,125.6,70z M205.5,205.5
			c-6.1,6.1-12.8,11.4-19.9,15.9c0,0,0,0,0,0l-38.8-48.3l32.1,3.5c0,0,15.4,1.6,18.9,0c3.2-1.3,20.6-25.7,20.6-25.7
			s-49.8-31.5-66.8-48.8c1.9-29.2-2.2-68.1-2.2-67.8c-12.5,12.5-14.1,14.5-26.7,26c-5.5-17.7-8-23.8-13.5-41.4
			c-16.4,13.5-28.9,36.3-37.9,63c-2,2.2-3.9,4.5-5.7,6.9c-1.2,1.6-2.4,3.3-3.6,5c-2.4,3.4-4.7,7.1-7,10.8c-1.6,2.7-3.1,5.4-4.6,8.2
			c-0.6,1.2-1.3,2.5-1.9,3.7c-9.6,18.7-17.5,39.6-24.5,58.6c0-0.1-0.1-0.2-0.1-0.2c-7.4-15.2-11.3-32-11.3-49.3
			c0-30,11.9-58.8,33.1-80s50-33.1,79.9-33.1c30,0,58.8,11.9,80,33.1c21.2,21.2,33.1,50,33.1,80
			C238.6,155.6,226.7,184.3,205.5,205.5z"/>
		<path class="st2" d="M77.1,160.9c7.2-1.2,13.2-1.8,19.2-1.8c2.1,0,4.1,0.1,6.2,0.2l92.5,9.3l8.7-10.9c0,0-2.9-9-5.1-10.3
			c-21.5-10.9-53.6-37.3-74.8-58.5c-4.8-13.5-11.9-41.4-16.4-54.9c-18,13.5-20.9,39.2-30.8,56.5c-19.2,14.4-31,63-40.6,103.7
			c0,0.1,0,0.3-0.1,0.4c10.7,16.1,60.7,62.2,130,37.2c0,0,0,0,0.1,0l-0.3-0.5l-36.7-61.1l-11.6-0.3c-0.3,0-0.6,0-1.3-0.3
			c-22.2-2.9-51.7,1.6-51.7,1.6c1.9-17.3,11.9-27.3,11.9-27.3s-6.4-2.9-15.4-5.1c1.9-7.1,20.6-15.4,23.1-16.4
			c-1.3,1.6-6.4,7.4-8.4,11.9c6.8,0.9,15.7,6.4,15.7,6.4S81.6,149.7,77.1,160.9z M123.7,120.4c10.9-1.6,18.9,4.2,26.3,9.6
			c-5.8,1.6-6.4,1.9-12.2,3.5c-6.1-3.5-11.6-5.5-16.7-4.8C121.7,125.6,122.7,123.3,123.7,120.4z"/>
	</g>
</g>
<g>
	<g>
		<polygon class="st4" points="312.1,21.4 326.6,21.4 339.9,83 350.1,21.4 362.5,21.4 347.8,100.5 333.5,100.5 319.4,35.3 
			305.2,100.5 290.9,100.5 276.2,21.4 288.6,21.4 298.8,83 		"/>
		<path class="st4" d="M400,73.5c0-11.2-1.5-17.5-11.4-17.5c-9.9,0-11.4,6.4-11.4,17.5c0,11.2,1.5,17.5,11.4,17.5
			C398.6,91,400,84.6,400,73.5 M365.5,73.5c0-16,4.6-27.3,23.1-27.3c18.6,0,23.1,11.3,23.1,27.3c0,16.1-4.6,27.3-23.1,27.3
			C370.1,100.8,365.5,89.5,365.5,73.5"/>
		<path class="st4" d="M420.8,86.7V21.4h11.7v65.2c0,2.9,1,4,4.4,4v9.5c0,0-1,0.2-2.3,0.2C425,100.3,420.8,95.7,420.8,86.7"/>
		<path class="st4" d="M480.6,31.3c-1.9-0.6-4.1-1-7.7-1c-5.2,0-9.4,2-9.4,7.9v9.3h14.7v9.9h-14.7v42.2h-11.7V57.3h-9.5v-7.2
			l9.5-2.7V37.1c0-11.2,6.3-17,20.2-17c3.4,0,6.6,0.5,8.5,1.3V31.3z"/>
		<path class="st4" d="M515,56.8c-1.3-0.4-3.3-0.6-5.7-0.6c-6.1,0-10.7,1.5-13.3,3.1v40.2h-11.7V47.4h6.9l1.9,4.2
			c3.9-3.1,9.7-5.4,16.5-5.4c2.2,0,4.1,0.3,5.5,0.6V56.8z"/>
		<path class="st4" d="M538.2,75.5c-5.2,0.6-8.2,2.6-8.2,8c0,4,1.7,7.7,8,7.7c4.7,0,7.9-1.4,11.2-3.4V74.2L538.2,75.5z M538.9,56.2
			c-6.8,0-12.3,1.6-16.3,3.1V49.2c4.1-1.8,10.9-3,17.1-3c17.1,0,21.1,7.5,21.1,18.6v34.8h-6.9l-1.9-4.2c-4.2,3.4-10,5.4-15.7,5.4
			c-13.4,0-17.9-8.3-17.9-16.7c0-11.3,7.3-16.1,19.1-17l11.7-0.9v-2.6C549.1,58.3,546.6,56.2,538.9,56.2"/>
		<path class="st4" d="M632,62.7c0-4.9-2.8-6.7-7.4-6.7c-5.1,0-8.5,1.6-11.3,3.2c0.2,1.9,0.3,3.6,0.3,5.7v34.5H602V62.7
			c0-4.9-2.7-6.7-7.4-6.7c-4.8,0-8.2,1.5-10.9,3v40.4H572V47.4h6.9l1.9,4.2c4.4-3.4,10.6-5.4,15.7-5.4c7,0,11.2,2,13.3,5.2
			c4.7-3.3,10.9-5.2,16.7-5.2c12.3,0,17.2,6.7,17.2,16.6v36.8H632V62.7z"/>
	</g>
	<g>
		<polygon class="st4" points="287.8,193 321.8,193 321.8,203.8 276.2,203.8 276.2,125.6 287.8,125.6 		"/>
		<path class="st4" d="M343.9,179.7c-5.2,0.6-8.2,2.6-8.2,8c0,4,1.7,7.7,8,7.7c4.7,0,7.9-1.4,11.2-3.4v-13.5L343.9,179.7z
			 M344.6,160.4c-6.8,0-12.3,1.6-16.3,3.1v-10.1c4.1-1.8,10.9-3,17.1-3c17.1,0,21.1,7.5,21.1,18.6v34.8h-6.9l-1.9-4.2
			c-4.2,3.4-10,5.4-15.7,5.4c-13.4,0-17.9-8.3-17.9-16.7c0-11.3,7.3-16.1,19.1-17l11.7-0.9v-2.6
			C354.9,162.5,352.4,160.4,344.6,160.4"/>
		<path class="st4" d="M409.6,203.8V168c0-5.3-2.7-7.7-8.2-7.7c-5.4,0-9.2,1.5-12,3v40.4h-11.7v-52.1h6.9l1.9,4.2
			c5.3-3.6,11.3-5.4,16.9-5.4c13.2,0,17.9,6.6,17.9,16.6v36.8H409.6z"/>
		<path class="st4" d="M452.1,180.7c8.8,0,10.7-4.6,10.7-10.5s-2-10.5-10.7-10.5c-8.8,0-10.7,4.6-10.7,10.5S443.3,180.7,452.1,180.7
			 M448.4,205.3c-5.3,0.9-10.1,3.3-10.1,8.3c0,5.8,4.2,8.1,13.8,8.1c9.2,0,17.2-2.7,17.2-9c0-3.5-1.8-5.1-6-5.6L448.4,205.3z
			 M452.1,190c-2.2,0-4.3-0.1-6-0.4c-0.8,0.8-1.5,2-1.5,3c0,1.8,0.9,2.7,3.1,3l18.9,2.3c10.3,1.3,14,5.9,14,14.6
			c0,13.4-14.2,18.6-29.3,18.6c-14,0-24.1-4.5-24.1-15.2c0-7.1,5.3-11.3,10.8-12.9v-0.1c-2.6-1.5-4.1-4.4-4.1-7.2
			c0-3.9,2.3-6.6,4.7-8.4c-5.9-3.3-8.3-9.4-8.3-17c0-11.9,5.8-19.8,21.8-19.8c3.8,0,6.9,0.4,9.6,1.3h18v7.4l-7.4,2.1
			c1,2.7,1.6,5.7,1.6,9.1C473.9,182.1,468,190,452.1,190"/>
		<path class="st4" d="M498.1,151.6v35.7c0,5.3,2.7,7.7,8.2,7.7c5.4,0,9.2-1.5,12-3v-40.4H530v52.1h-6.9l-1.9-4.2
			c-5.3,3.6-11.3,5.4-16.9,5.4c-13.2,0-17.9-6.6-17.9-16.6v-36.8H498.1z"/>
		<path class="st4" d="M557.3,179.7c-5.2,0.6-8.2,2.6-8.2,8c0,4,1.7,7.7,8,7.7c4.7,0,7.9-1.4,11.2-3.4v-13.5L557.3,179.7z
			 M558.1,160.4c-6.8,0-12.3,1.6-16.3,3.1v-10.1c4.1-1.8,10.9-3,17.1-3c17.1,0,21.1,7.5,21.1,18.6v34.8h-6.9l-1.9-4.2
			c-4.2,3.4-10,5.4-15.7,5.4c-13.4,0-17.9-8.3-17.9-16.7c0-11.3,7.3-16.1,19.1-17l11.7-0.9v-2.6
			C568.3,162.5,565.8,160.4,558.1,160.4"/>
		<path class="st4" d="M610.9,180.7c8.8,0,10.7-4.6,10.7-10.5s-2-10.5-10.7-10.5c-8.8,0-10.7,4.6-10.7,10.5S602.2,180.7,610.9,180.7
			 M607.3,205.3c-5.3,0.9-10.1,3.3-10.1,8.3c0,5.8,4.2,8.1,13.8,8.1c9.2,0,17.2-2.7,17.2-9c0-3.5-1.8-5.1-6-5.6L607.3,205.3z
			 M610.9,190c-2.2,0-4.3-0.1-6-0.4c-0.8,0.8-1.5,2-1.5,3c0,1.8,0.9,2.7,3.1,3l18.9,2.3c10.3,1.3,14,5.9,14,14.6
			c0,13.4-14.2,18.6-29.3,18.6c-14,0-24.1-4.5-24.1-15.2c0-7.1,5.3-11.3,10.8-12.9v-0.1c-2.6-1.5-4.1-4.4-4.1-7.2
			c0-3.9,2.3-6.6,4.7-8.4c-5.9-3.3-8.3-9.4-8.3-17c0-11.9,5.8-19.8,21.8-19.8c3.8,0,6.9,0.4,9.6,1.3h18v7.4l-7.4,2.1
			c1,2.7,1.6,5.7,1.6,9.1C632.7,182.1,626.9,190,610.9,190"/>
		<path class="st4" d="M656,173.8h20.8c0-7.1-0.4-13.3-9.5-13.3C658.8,160.5,656.4,166,656,173.8 M667.4,150.4
			c18.3,0,21.3,12.1,21.3,26.5c0,1.8-0.1,3.4-0.2,5.1H656c0.2,7.8,3,12.9,13.7,12.9c6.6,0,12-1.1,16.6-3.1v10
			c-5.9,2.5-12.7,3.2-18.3,3.2c-17.4,0-23.7-10.4-23.7-27.3C644.3,160.9,650.4,150.4,667.4,150.4"/>
		<g>
			<path class="st4" d="M689,142.2h-3.5v-1.9h9.2v1.9h-3.5v9.5H689V142.2z M697.4,140.3h3.3l3,7.7l3-7.7h3.3v11.5h-2.1V143h-0.1
				l-3.2,8.8h-1.7l-3.2-8.8h-0.1v8.8h-2.1V140.3z"/>
		</g>
	</g>
</g>
</svg>
