<?xml version="1.0" encoding="UTF-8" standalone="no"?>
<!-- Created with Inkscape (http://www.inkscape.org/) -->

<svg
   xmlns:dc="http://purl.org/dc/elements/1.1/"
   xmlns:cc="http://creativecommons.org/ns#"
   xmlns:rdf="http://www.w3.org/1999/02/22-rdf-syntax-ns#"
   xmlns:svg="http://www.w3.org/2000/svg"
   xmlns="http://www.w3.org/2000/svg"
   xmlns:sodipodi="http://sodipodi.sourceforge.net/DTD/sodipodi-0.dtd"
   xmlns:inkscape="http://www.inkscape.org/namespaces/inkscape"
   width="600"
   height="600"
   id="svg2"
   sodipodi:version="0.32"
   inkscape:version="0.47pre1"
   version="1.0"
   sodipodi:docname="snowflake.svg"
   inkscape:output_extension="org.inkscape.output.svg.inkscape">
  <!-- (c) Copyright 2009 Stephane Gigandet - http://scrapcoloring.com. All rights reserved. -->
  <metadata
     id="metadata2511">
    <rdf:RDF>
      <dc:publisher>ScrapColoring.com</dc:publisher>
      <dc:creator>Stephane Gigandet</dc:creator>
      <cc:Work
         rdf:about="">
        <dc:format>image/svg+xml</dc:format>
        <dc:type
           rdf:resource="http://purl.org/dc/dcmitype/StillImage" />
        <dc:title></dc:title>
      </cc:Work>
    </rdf:RDF>
  </metadata>
  <sodipodi:namedview
     id="base"
     pagecolor="#ffffff"
     bordercolor="#666666"
     borderopacity="1.0"
     inkscape:pageopacity="0.0"
     inkscape:pageshadow="2"
     inkscape:zoom="1.1561196"
     inkscape:cx="278.74512"
     inkscape:cy="303.43511"
     inkscape:document-units="px"
     inkscape:current-layer="layer1"
     showgrid="false"
     inkscape:window-width="1280"
     inkscape:window-height="974"
     inkscape:window-x="-8"
     inkscape:window-y="-8"
     showguides="true"
     inkscape:guide-bbox="true"
     inkscape:window-maximized="1" />
  <defs
     id="defs4">
    <inkscape:perspective
       id="perspective2477"
       inkscape:persp3d-origin="300 : 200 : 1"
       inkscape:vp_z="600 : 300 : 1"
       inkscape:vp_y="0 : 1000 : 0"
       inkscape:vp_x="0 : 300 : 1"
       sodipodi:type="inkscape:persp3d" />
  </defs>
  <metadata
     id="metadata7">
    <rdf:RDF>
      <cc:Work
         rdf:about="">
        <dc:format>image/svg+xml</dc:format>
        <dc:type
           rdf:resource="http://purl.org/dc/dcmitype/StillImage" />
      </cc:Work>
    </rdf:RDF>
  </metadata>
  <g
     id="layer1"
     inkscape:groupmode="layer"
     inkscape:label="Calque 1">
    <path
       style="fill:#ffffff;fill-opacity:1;fill-rule:evenodd;stroke:#000000;stroke-width:1;stroke-miterlimit:4;stroke-opacity:1;stroke-dasharray:none"
       d="m 300.53125,1.59375 c -17.65658,10.29911 -35.44009,20.500607 -53.1875,30.6875 6.52544,24.232744 12.94887,48.492975 19.5,72.71875 7.84375,0 15.6875,0 23.53125,0 0,11.11458 0,22.22917 0,33.34375 -12.65812,-12.65431 -25.36761,-25.25796 -37.9375,-38 -7.07062,4.1053 -14.14411,8.20604 -21.25,12.25 0,8.875 0,17.75 0,26.625 19.70563,5.37893 39.45252,10.60513 59.1875,15.875 0,11.88542 0,23.77083 0,35.65625 -6.96904,-6.98924 -13.98369,-13.93341 -20.90625,-20.96875 -4.49139,4.55581 -14.15559,5.06741 -15.0625,12.0625 0.76979,5.41184 -3.218,14.28644 3.71875,17.03125 10.75414,2.86022 21.48343,5.81595 32.25,8.625 0,11.88542 0,23.77083 0,35.65625 -2.81803,-3.93038 -8.98418,-6.8892 -9.90625,-11.375 1.85132,-4.42905 5.48917,-12.42925 -1.125,-14.71875 -5.45427,-3.17367 -10.9428,-6.28852 -16.375,-9.5 -8.15449,4.73943 -16.32287,9.45597 -24.5,14.15625 0,7.98958 0,15.97917 0,23.96875 4.05627,3.16148 11.26453,0.76966 13.96875,5.40625 0.23158,4.2969 2.36286,8.21792 3.34375,12.28125 -10.35417,-5.97917 -20.70833,-11.95833 -31.0625,-17.9375 3.23988,-12.08426 6.4634,-24.1697 9.71875,-36.25 -6.34141,-2.37168 -11.12349,-8.23027 -18.15625,-8.71875 -3.73225,4.33699 -13.3808,4.06688 -12.8125,11.46875 2.12804,8.38927 4.47808,16.74699 6.6875,25.125 -10.27083,-5.92708 -20.54167,-11.85417 -30.8125,-17.78125 5.267,-19.7566 10.57946,-39.50105 15.875,-59.25 -7.70963,-4.40585 -15.39765,-8.81988 -23.09375,-13.34375 -7.08027,4.16028 -14.16541,8.19388 -21.25,12.25 4.64831,17.30904 9.27687,34.62339 13.90625,51.9375 -9.63542,-5.5625 -19.27083,-11.125 -28.90625,-16.6875 3.82366,-6.69467 7.68849,-13.36562 11.5625,-20.03125 -18.21384,-18.09814 -36.37049,-36.25504 -54.46875,-54.46875 -17.028419,9.85621 -34.06028,19.70689 -51.125,29.5 0,20.84375 0,41.6875 0,62.53125 24.219688,6.5454 48.455067,13.03307 72.6875,19.53125 3.88171,-6.84273 7.83517,-13.64483 11.75,-20.46875 9.63542,5.57292 19.27083,11.14583 28.90625,16.71875 -17.29427,4.62561 -34.58681,9.25824 -51.875,13.90625 0,8.16667 0,16.33333 0,24.5 7.71666,4.40474 15.40498,8.85923 23.09375,13.3125 14.36444,-14.52047 28.88586,-28.88505 43.3125,-43.34375 10.28125,5.9375 20.5625,11.875 30.84375,17.8125 -9.54691,2.54518 -19.09222,5.08793 -28.625,7.6875 1.66697,6.03472 -2.5399,14.459 2.71875,18.96875 5.34991,1.8567 10.39361,9.72193 16.5625,5.625 7.91478,-7.98799 15.90153,-15.91156 23.84375,-23.875 10.27083,5.92708 20.54167,11.85417 30.8125,17.78125 -4.6531,0.32479 -10.28062,4.45341 -14.4375,2.8125 -2.71587,-3.60148 -7.75614,-10.08503 -12.78125,-6.15625 -4.95692,4.54855 -13.38251,5.49971 -16.46875,11.8125 -0.28787,8.58279 -0.56744,17.16588 -0.8125,25.75 6.93755,4.01031 13.88459,8.00439 20.8125,12.03125 4.62697,-1.78322 5.93593,-8.71184 10.90625,-9.21875 3.54527,1.54118 12.22586,2.26077 12.69675,4.15673 -9.98225,5.77067 -19.9645,11.54135 -29.94675,17.31202 -8.83708,-8.84001 -17.68456,-17.66965 -26.5,-26.53125 -5.21541,4.22304 -12.71596,5.43732 -16.59375,11.28125 1.7083,5.38016 -3.16775,13.71164 3.5,16.875 8.31783,2.31604 16.71476,4.48788 25.0625,6.75 -10.28125,5.9375 -20.5625,11.875 -30.84375,17.8125 -14.43122,-14.45413 -28.94107,-28.83022 -43.3125,-43.34375 -7.6885,4.45375 -15.37744,8.90716 -23.09375,13.3125 0,8.16667 0,16.33333 0,24.5 17.28294,4.66759 34.5848,9.26542 51.875,13.90625 -9.625,5.5625 -19.25,11.125 -28.875,16.6875 -3.85589,-6.70348 -7.69518,-13.31397 -11.5,-20 -24.831494,6.66301 -49.685558,13.24243 -74.5,19.96875 0.0085,19.67708 0.02241,39.35417 0.03125,59.03125 18.085123,10.37717 36.13869,20.80968 54.1875,31.25 17.68712,-17.77069 35.41653,-35.50067 53.1875,-53.1875 -3.94482,-6.80826 -7.8738,-13.62569 -11.8125,-20.4375 9.63542,-5.5625 19.27083,-11.125 28.90625,-16.6875 -4.62682,17.31759 -9.25347,34.63527 -13.9375,51.9375 7.08866,4.06191 14.16723,8.08662 21.25,12.25 7.66137,-4.47476 15.34426,-8.91309 23.03125,-13.34375 -5.18582,-19.76235 -10.55298,-39.47617 -15.8125,-59.21875 10.28125,-5.94792 20.5625,-11.89583 30.84375,-17.84375 -2.52001,9.56127 -5.1157,19.1 -7.65625,28.65625 6.07674,1.62834 11.24962,9.43768 17.78125,7.15625 4.33206,-3.65707 14.18697,-4.35622 13.0625,-12 -2.87461,-10.72649 -5.74116,-21.45513 -8.59375,-32.1875 10.25,-5.92708 20.5,-11.85417 30.75,-17.78125 -1.71851,4.22863 -1.61901,10.14742 -4.28125,13.5 -4.73495,1.19096 -13.16876,0.71654 -13.53125,7.40625 0,6.72917 0,13.45833 0,20.1875 8.44936,4.83611 16.87579,9.71298 25.28125,14.625 6.91114,-4.07695 13.83426,-8.03171 20.75,-12 0.74827,-5.3951 -5.28289,-10.70437 -2.5,-15.65625 3.18078,-2.42336 5.49552,-5.88346 8.375,-8.6875 0,11.97917 0,23.95833 0,35.9375 -12.09802,3.1815 -24.15989,6.47993 -36.25,9.6875 1.12158,6.6157 -1.59032,13.79388 1.5625,20.03125 5.53318,1.19911 10.29909,9.59495 16.34375,5.34375 6.14678,-6.07054 12.22287,-12.21491 18.34375,-18.3125 0,11.88542 0,23.77083 0,35.65625 -19.73498,5.26989 -39.48188,10.49601 -59.1875,15.875 0,8.875 0,17.75 0,26.625 7.10618,4.04346 14.17915,8.14509 21.25,12.25 12.57004,-12.7419 25.27929,-25.34578 37.9375,-38 0,11.11458 0,22.22917 0,33.34375 -7.84375,0 -15.6875,0 -23.53125,0 -6.55102,24.2258 -12.9746,48.48599 -19.5,72.71875 18.09207,10.36474 36.14729,20.79516 54.1875,31.25 17.03551,-9.89722 34.06685,-19.71536 51.125,-29.46875 -6.68692,-24.82788 -13.27954,-49.6812 -20,-74.5 -7.67708,0 -15.35417,0 -23.03125,0 0,-11.11458 0,-22.22917 0,-33.34375 12.65812,12.65431 25.36761,25.25796 37.9375,38 7.07062,-4.1053 14.14411,-8.20604 21.25,-12.25 0,-8.875 0,-17.75 0,-26.625 -19.70563,-5.37893 -39.45252,-10.60513 -59.1875,-15.875 0,-11.88542 0,-23.77083 0,-35.65625 6.96904,6.98924 13.98369,13.93341 20.90625,20.96875 4.49139,-4.55581 14.15559,-5.06741 15.0625,-12.0625 -0.76979,-5.41184 3.218,-14.28644 -3.71875,-17.03125 -10.75414,-2.86022 -21.48343,-5.81595 -32.25,-8.625 0,-11.88542 0,-23.77083 0,-35.65625 2.81803,3.93038 8.98418,6.8892 9.90625,11.375 -1.85132,4.42905 -5.48917,12.42925 1.125,14.71875 5.45427,3.17367 10.9428,6.28852 16.375,9.5 8.15449,-4.73944 16.32288,-9.45596 24.5,-14.15625 0,-7.98958 0,-15.97917 0,-23.96875 -4.05627,-3.16148 -11.26453,-0.76966 -13.96875,-5.40625 -0.23158,-4.2969 -2.36286,-8.21792 -3.34375,-12.28125 10.35417,5.97917 20.70833,11.95833 31.0625,17.9375 -3.23988,12.08426 -6.4634,24.1697 -9.71875,36.25 6.34141,2.37168 11.12349,8.23027 18.15625,8.71875 3.73225,-4.33699 13.3808,-4.06688 12.8125,-11.46875 -2.12804,-8.38927 -4.47808,-16.74699 -6.6875,-25.125 10.27083,5.92708 20.54167,11.85417 30.8125,17.78125 -5.267,19.7566 -10.57946,39.50105 -15.875,59.25 7.70963,4.40585 15.39765,8.81988 23.09375,13.34375 7.08027,-4.16028 14.16541,-8.19388 21.25,-12.25 -4.64831,-17.30904 -9.27687,-34.62339 -13.90625,-51.9375 9.625,5.5625 19.25,11.125 28.875,16.6875 -3.92358,6.81451 -7.84132,13.63243 -11.78125,20.4375 17.77069,17.68712 35.50067,35.41653 53.1875,53.1875 18.04875,-10.44043 36.10246,-20.87269 54.1875,-31.25 0,-19.67708 0,-39.35417 0,-59.03125 -24.80518,-6.72198 -49.64863,-13.30216 -74.46875,-19.96875 -3.8362,6.68036 -7.6219,13.32935 -11.5,20.03125 -9.63542,-5.57292 -19.27083,-11.14583 -28.90625,-16.71875 17.29427,-4.62561 34.58681,-9.25824 51.875,-13.90625 0,-8.16667 0,-16.33333 0,-24.5 -7.71666,-4.40474 -15.40498,-8.85923 -23.09375,-13.3125 -14.36444,14.52047 -28.88586,28.88505 -43.3125,43.34375 C 420,358.1875 409.71875,352.25 399.4375,346.3125 c 9.54691,-2.54518 19.09222,-5.08793 28.625,-7.6875 -1.66697,-6.03472 2.5399,-14.459 -2.71875,-18.96875 -5.34991,-1.8567 -10.39361,-9.72193 -16.5625,-5.625 -7.91478,7.98799 -15.90153,15.91156 -23.84375,23.875 -10.27083,-5.92708 -20.54167,-11.85417 -30.8125,-17.78125 4.85843,-0.81782 10.15605,-3.61298 14.75,-3.28125 3.35354,3.46759 7.11658,10.89025 13,7.8125 5.84408,-3.37442 11.68574,-6.75306 17.53125,-10.125 -0.27141,-9.58427 -0.60026,-19.16682 -0.90625,-28.75 -6.92924,-3.91781 -13.82133,-7.86865 -20.71875,-11.9375 -4.80643,2.08219 -6.33857,9.57584 -11.90625,9.5625 -3.53682,-1.77043 -7.56436,-1.97357 -11.375,-2.90625 10.39583,-6 20.79167,-12 31.1875,-18 8.85364,8.83391 17.67442,17.70059 26.5,26.5625 5.1874,-4.26838 12.69237,-5.50323 16.59375,-11.3125 -1.7083,-5.38016 3.16775,-13.71164 -3.5,-16.875 -8.31783,-2.31604 -16.71476,-4.48788 -25.0625,-6.75 10.28125,-5.9375 20.5625,-11.875 30.84375,-17.8125 14.43122,14.45413 28.94107,28.83022 43.3125,43.34375 7.6885,-4.45375 15.37744,-8.90716 23.09375,-13.3125 0,-8.16667 0,-16.33333 0,-24.5 -17.28825,-4.64777 -34.58066,-9.28088 -51.875,-13.90625 9.625,-5.5625 19.25,-11.125 28.875,-16.6875 3.93101,6.85192 7.88053,13.60111 11.75,20.4375 24.2407,-6.50618 48.48958,-12.98239 72.71875,-19.53125 0,-20.84375 0,-41.6875 0,-62.53125 -17.0706,-9.80095 -34.11408,-19.64957 -51.15625,-29.5 -18.11248,18.2308 -36.32323,36.36434 -54.46875,54.5625 3.92804,6.60273 7.72087,13.28443 11.5625,19.9375 -9.63542,5.5625 -19.27083,11.125 -28.90625,16.6875 4.62682,-17.31759 9.25347,-34.63527 13.9375,-51.9375 -7.11735,-4.1108 -14.17587,-8.03761 -21.25,-12.21875 -7.70172,4.50351 -15.39201,8.90393 -23.09375,13.3125 5.30526,19.74357 10.59408,39.49156 15.84375,59.25 -10.28125,5.92708 -20.5625,11.85417 -30.84375,17.78125 2.55215,-9.54505 5.14654,-19.07649 7.6875,-28.625 -6.05314,-1.90041 -10.43623,-8.21584 -17.21875,-7.75 -4.1105,4.4045 -14.56183,4.46096 -13.65625,12.4375 2.86512,10.78323 5.76551,21.55847 8.625,32.34375 -10.25,5.92708 -20.5,11.85417 -30.75,17.78125 1.84686,-4.62813 1.81055,-11.15615 4.65625,-14.78125 4.59537,-0.66512 12.82514,-1.69092 11.84375,-8.0625 -1.48813,-6.53116 2.02915,-14.49138 -2.09375,-20.1875 -7.26987,-4.33286 -14.57888,-8.32939 -21.875,-12.65625 -6.91627,4.05777 -13.84228,7.99691 -20.75,11.96875 -0.64921,4.78588 4.49525,9.40253 2.28125,13.84375 -3.85153,2.48432 -6.46895,6.41722 -9.6875,9.65625 0,-11.98958 0,-23.97917 0,-35.96875 12.09802,-3.1815 24.15989,-6.47993 36.25,-9.6875 -1.12158,-6.6157 1.59032,-13.79388 -1.5625,-20.03125 -5.53318,-1.19911 -10.29909,-9.59495 -16.34375,-5.34375 -6.14678,6.07054 -12.22287,12.21491 -18.34375,18.3125 0,-11.88542 0,-23.77083 0,-35.65625 19.73498,-5.26989 39.48188,-10.49601 59.1875,-15.875 0,-8.875 0,-17.75 0,-26.625 -7.10618,-4.04346 -14.17915,-8.14509 -21.25,-12.25 -12.57004,12.7419 -25.27929,25.34578 -37.9375,38 0,-11.11458 0,-22.22917 0,-33.34375 7.67708,0 15.35417,0 23.03125,0 6.72051,-24.818783 13.31315,-49.672099 20,-74.5 -17.06138,-9.758733 -34.08773,-19.568621 -51.125,-29.46875 l -0.87158,0.4902612 -0.12842,0.072239 z m 24.6875,253.6875 c 2.98434,1.03434 1.95202,6.13497 3.15625,8.71875 0.98428,3.7842 4.33234,9.10743 -1.25,10.375 -5.13076,3.25885 -8.79163,-2.49955 -13.09375,-4.15625 -4.55681,-1.42308 -5.8548,-5.98471 -4.21875,-10.0625 4.30859,-3.0923 10.80136,-1.53751 15.21875,-4.84375 0.0249,0.0418 0.21477,-0.14539 0.1875,-0.0312 z m -50.6875,0.3125 c 5.41216,1.18763 10.4774,3.40955 16,4.34375 1.05391,4.69685 -0.80389,10.64228 -6.25,11.0625 -3.71977,3.34032 -9.73075,6.16261 -13.34375,1.15625 -2.33998,-2.94333 1.62291,-7.14047 2.0625,-10.34375 1.30402,-1.65156 -0.46492,-5.5321 1.53125,-6.21875 z m -13.40625,33 c 2.40538,0.29088 5.04061,2.75689 5.82506,4.43625 -0.61652,5.49758 1.75561,12.00734 -1.07506,16.9075 -3.78123,4.10161 -8.71991,-0.28973 -10.78125,-3.84375 -2.19839,-2.06392 -8.48306,-5.98471 -4.09375,-9.125 4.02764,-1.94652 5.775,-7.01454 10.125,-8.375 z M 340.0625,289 c 4.68367,1.78393 6.42909,7.78395 10.82354,10.24682 -1.80773,3.72913 -8.19779,10.25198 -12.26104,12.19068 -4.50641,-1.44796 -7.64576,-6.08797 -5.6875,-10.6875 -1.30912,-4.60452 0.31103,-10.52977 5.78125,-11.0625 0.36722,-0.41034 0.88502,-0.59251 1.34375,-0.6875 z m -16.71875,35.96875 c 3.25067,-0.0732 7.64383,3.28071 5.78563,6.33517 -2.45876,4.48034 -0.67741,16.29786 -8.33524,11.7816 -3.91204,-2.14228 -12.82017,-0.45309 -11.45039,-6.77302 -0.38494,-4.46308 3.60661,-6.83407 7.20031,-7.87718 2.11383,-1.39408 4.2933,-3.02369 6.79969,-3.46657 z m -45.96875,0.5 c 3.82892,1.0907 7.48658,3.74607 11.03125,5.6875 3.59314,2.43256 3.45278,10.12864 -1.6875,10.28125 -3.97358,0.44793 -8.17565,1.67267 -11.75,2.625 -2.32023,-4.28792 -1.36729,-10.00294 -4.09375,-14.0625 0.26621,-2.88346 4.04429,-4.39113 6.5,-4.53125 z"
       id="rect4600" />
  </g>
</svg>
