<svg xmlns="http://www.w3.org/2000/svg" viewBox="0 0 249.5 40.15"><defs><style>.cls-1{isolation:isolate;}.cls-2{fill:#034d73;}.cls-3,.cls-4{fill:none;stroke-miterlimit:10;stroke-width:1.4px;}.cls-3{stroke:#004c72;}.cls-4{stroke:#034d73;}</style></defs><title>Asset 1</title><g id="Layer_2" data-name="Layer 2"><g id="Layer_1-2" data-name="Layer 1"><g id="Layer_2-2" data-name="Layer 2"><g id="Layer_2-2-2" data-name="Layer 2-2"><g class="cls-1"><g class="cls-1"><path class="cls-2" d="M16.92,32l1.44-.19c.23,3.84,1.07,6,4.42,6,3.68,0,4.24-2.26,4.24-4.61,0-3.26-1.82-5.38-5.31-10-3.07-4.08-4.33-5.86-4.33-8.83C17.39,11,19,8.73,23,8.73c3.35,0,5,1.63,5.17,5.86l-1.44.19c0-3.41-1.3-4.66-3.72-4.66-3.17,0-4.14,1.78-4.14,4.27s1.26,4.18,4.05,7.92c4,5.38,5.59,7.15,5.59,10.9,0,3.07-.93,6-5.68,6C18.27,39.22,17.34,36.67,16.92,32Z" transform="translate(0 -3.27)"/></g><g class="cls-1"><path class="cls-2" d="M35,9h4.24c4.56,0,6.42,1.34,6.42,6.62v2.78c0,5.23-1.86,6.62-6.42,6.62H36.48V39H35Zm4.24,14.64c3.72,0,5-1.1,5-5.23V15.6c0-4.18-1.26-5.23-5-5.23H36.48V23.62Z" transform="translate(0 -3.27)"/></g><g class="cls-1"><path class="cls-2" d="M54.26,8.78h1.35L61.15,39H59.7l-1.77-9.65H51.88L50.11,39h-1.4ZM57.65,28l-1.44-8-1.3-7.25-1.35,7.3L52.11,28Z" transform="translate(0 -3.27)"/></g><g class="cls-1"><path class="cls-2" d="M67.34,9h4.24c4.61,0,6.47,1.34,6.47,6.62V18c0,4.32-1.21,6-4.1,6.53L78.05,39H76.52L72.46,24.77H68.79V39H67.34Zm4.24,14.4c3.86,0,5-1.1,5-5.33V15.6c0-4.18-1.16-5.23-5-5.23H68.79v13Z" transform="translate(0 -3.27)"/></g><g class="cls-1"><path class="cls-2" d="M88.25,10.37H82.66V9H95.28v1.39H89.69V39H88.25Z" transform="translate(0 -3.27)"/></g><g class="cls-1"><path class="cls-2" d="M103.47,8.78h1.35L110.36,39h-1.44l-1.77-9.65H101.1L99.33,39h-1.4Zm3.4,19.2-1.44-8-1.3-7.25-1.35,7.3L101.33,28Z" transform="translate(0 -3.27)"/><path class="cls-2" d="M126.43,22.61h-8.66V39h-1.44V9h1.44V21.21h8.66V9h1.44V39h-1.44Z" transform="translate(0 -3.27)"/></g><g class="cls-1"><path class="cls-2" d="M139.84,8.78h1.35L146.73,39h-1.44l-1.77-9.65h-6.05L135.7,39h-1.4Zm3.4,19.2-1.44-8-1.3-7.25-1.35,7.3L137.7,28Z" transform="translate(0 -3.27)"/></g><g class="cls-1"><path class="cls-2" d="M152,32V15.84c0-4.37,1.82-7.1,5.68-7.1,4.79,0,5.82,1.87,5.91,8.11l-1.44.14c0-5.57-.84-6.86-4.47-6.86-3,0-4.24,2.21-4.24,5.71V32c0,2.88.75,5.81,4.56,5.81,2.93,0,4.28-1.58,4.33-6.82l1.44.14c-.19,5.81-1.91,8.06-5.77,8.06C153.1,39.22,152,35.57,152,32Z" transform="translate(0 -3.27)"/><path class="cls-2" d="M174.19,19.82l-3.26,5.52V39h-1.44V9h1.44V22.9L179.18,9h1.49l-5.45,9.17L181.13,39h-1.44Z" transform="translate(0 -3.27)"/><path class="cls-2" d="M207,9h1.44V39H207Z" transform="translate(0 -3.27)"/><path class="cls-2" d="M214.47,9h1.44l3.63,20,1.16,6.29,1.16-6.34L225.5,9h1.4l-5.54,30.24H220Z" transform="translate(0 -3.27)"/></g></g><line class="cls-3" x1="194.76" y1="0.3" x2="194.76" y2="39.8"/><polyline class="cls-4" points="11.04 0.3 0.79 21.71 11.04 39.8"/><polyline class="cls-4" points="238.46 0.3 248.71 21.71 238.46 39.8"/></g></g></g></g></svg>