<?xml version="1.0" encoding="utf-8"?>
<!-- Generator: Adobe Illustrator 21.0.0, SVG Export Plug-In . SVG Version: 6.00 Build 0)  -->
<svg version="1.1" id="Layer_1" xmlns="http://www.w3.org/2000/svg" xmlns:xlink="http://www.w3.org/1999/xlink" x="0px" y="0px"
	 viewBox="0 0 792 173.7" style="enable-background:new 0 0 792 173.7;" xml:space="preserve">
<style type="text/css">
	.st0{fill:#FFFFFF;}
	.st1{opacity:0.4;fill:#00B3E3;}
	.st2{fill:#263746;}
	.st3{fill:#1A82E2;}
	.st4{fill:#00B3E3;}
</style>
<g>
	<polygon class="st0" points="155.5,22.3 70.6,22.3 70.6,64.7 28.2,64.7 28.2,149.6 113.1,149.6 113.1,107.1 155.5,107.1 	"/>
	<polygon class="st1" points="28.2,64.7 28.2,107.1 70.6,107.1 70.6,149.6 113.1,149.6 113.1,64.7 	"/>
	<path class="st2" d="M179.3,132l18.5-14.5c5.2,9,13.5,14.2,23,14.2c10.3,0,15.8-6.7,15.8-14c0-8.7-10.6-11.5-21.9-15
		c-14.2-4.4-30.1-9.9-30.1-30.2c0-17,14.8-30.5,35.3-30.5c17.3,0,27.2,6.5,35.8,15.4l-16.7,12.6c-4.4-6.5-10.6-10-18.9-10
		c-9.4,0-14.5,5.1-14.5,11.8c0,8.1,10.2,10.9,21.5,14.7c14.4,4.7,30.7,11,30.7,31.4c0,16.9-13.4,33.1-36.8,33.1
		C201.7,151,188.9,142.9,179.3,132z M341.9,76.9h19.8V85c4.7-6,11.8-9.6,20.1-9.6c17.1,0,27.5,11,27.5,29.8v44.3H389v-41.7
		c0-9.7-4.5-15.4-13.4-15.4c-7.6,0-13.8,5.2-13.8,17.4v39.7h-19.9V76.9z M413.9,113.2c0-25.7,18.9-37.8,35.3-37.8
		c9.4,0,16.9,3.5,21.7,8.6V43.5h19.9v106.1h-19.9v-8.1c-4.8,5.7-12.5,9.6-21.9,9.6C433.5,151,413.9,138.8,413.9,113.2z M471.4,113.1
		c0-10.8-7.8-19.5-18.6-19.5c-11,0-19.5,8.3-19.5,19.5c0,11.2,8.4,19.6,19.5,19.6C463.6,132.7,471.4,123.8,471.4,113.1z M495.4,96.5
		c0-30.2,22.8-54.5,54.2-54.5c15.7,0,28.9,5.7,38.5,14.7c3.9,3.7,7.2,7.9,9.8,12.5L580.1,80c-6.5-12.1-16.6-18.3-30.4-18.3
		c-19.3,0-34.3,15.8-34.3,34.9c0,19.5,14.7,34.9,35,34.9c15.4,0,26.3-8.7,30.1-22.2h-33.3V89.8h55.1V98c0,28.5-20.3,53-51.9,53
		C517.3,151,495.4,125.9,495.4,96.5z M607.4,76.9h19.8v11.9c3.6-7.6,10.2-11.9,20.1-11.9h8L648,96.2h-5.4c-10.6,0-15.3,5.5-15.3,19
		v34.3h-19.9V76.9z M660.4,76.9h19.9v72.7h-19.9V96.2l-7.2,0L660.4,76.9z M670.4,65.8c6.6,0,11.9-5.3,11.9-11.9
		c0-6.6-5.3-11.9-11.9-11.9c-6.6,0-11.9,5.3-11.9,11.9C658.5,60.5,663.8,65.8,670.4,65.8z M685,113.2c0-25.7,18.9-37.8,35.3-37.8
		c9.4,0,16.9,3.5,21.7,8.6V43.5h19.9v106.1H742v-8.1c-4.8,5.7-12.5,9.6-21.9,9.6C704.6,151,685,138.8,685,113.2z M742.6,113.1
		c0-10.8-7.8-19.5-18.6-19.5c-11,0-19.5,8.3-19.5,19.5c0,11.2,8.4,19.6,19.5,19.6C734.7,132.7,742.6,123.8,742.6,113.1z
		 M337.2,113.1c0-20.9-15.3-37.6-37.5-37.6c-20.9,0-37.8,16.9-37.8,37.8c0,20.9,15.7,37.8,38.4,37.8c15.7,0,27-7.6,33.3-18.4
		l-15.8-9.4c-3.3,6.4-9.8,10.4-17.4,10.4c-10.5,0-17-5.2-19.3-13.2h56.1V113.1z M282,104.4c3.1-6.8,9.4-11.5,17.9-11.5
		c8.4,0,14.7,3.9,17.3,11.5H282z"/>
	<rect x="28.2" y="107.1" class="st3" width="42.4" height="42.4"/>
	<polygon class="st4" points="113.1,64.7 113.1,22.3 70.6,22.3 70.6,64.7 70.6,107.1 113.1,107.1 155.5,107.1 155.5,64.7 	"/>
	<rect x="113.1" y="22.3" class="st3" width="42.4" height="42.4"/>
</g>
</svg>
