<?xml version="1.0" encoding="utf-8"?>
<!-- Generator: Adobe Illustrator 21.0.0, SVG Export Plug-In . SVG Version: 6.00 Build 0)  -->
<svg version="1.1" id="Layer_2" xmlns="http://www.w3.org/2000/svg" xmlns:xlink="http://www.w3.org/1999/xlink" x="0px" y="0px"
	 viewBox="0 0 71.2 35.2" style="enable-background:new 0 0 71.2 35.2;" xml:space="preserve">
<style type="text/css">
	.st0{fill:#FFFFFF;}
	.st1{fill:none;stroke:#FFFFFF;stroke-width:0.25;stroke-linecap:round;}
</style>
<g>
	<g>
		<path class="st0" d="M6.9,24.9h0.6c0.4,0,0.7,0,1,0.2c0.2,0.1,0.3,0.4,0.3,0.6c0,0.4-0.3,0.6-0.4,0.6C8.6,26.5,9,26.6,9,27.2
			c0,0.4-0.2,0.6-0.4,0.8c-0.2,0.2-0.6,0.2-0.8,0.2H6.9V24.9z M7.5,26.2h0.2c0.1,0,0.5,0,0.5-0.4c0-0.2-0.1-0.4-0.5-0.4H7.5V26.2z
			 M7.5,27.6h0.3c0.1,0,0.6,0,0.6-0.4c0-0.1-0.1-0.4-0.6-0.4H7.5V27.6z"/>
		<path class="st0" d="M11.5,25.7v2.4H11v-0.2l0,0c-0.1,0.1-0.3,0.3-0.6,0.3c-0.4,0-0.7-0.2-0.8-0.4c-0.2-0.3-0.2-0.7-0.2-0.9v-1.3
			H10V27c0,0.2,0,0.7,0.5,0.7c0.4,0,0.5-0.3,0.5-0.7v-1.2L11.5,25.7L11.5,25.7z"/>
		<path class="st0" d="M12,24.9h0.6v0.5H12V24.9z M12,25.7h0.6v2.4H12V25.7z"/>
		<path class="st0" d="M13,24.9h0.6v3.3H13V24.9z"/>
		<path class="st0" d="M16.6,28.1H16v-0.3l0,0c-0.1,0.2-0.4,0.4-0.8,0.4c-0.6,0-1.2-0.5-1.2-1.3s0.7-1.3,1.2-1.3
			c0.4,0,0.6,0.1,0.7,0.3v-1h0.6v3.2H16.6z M15.3,27.7c0.4,0,0.7-0.4,0.7-0.8s-0.3-0.8-0.7-0.8s-0.7,0.4-0.7,0.7
			C14.6,27.4,14.9,27.7,15.3,27.7z"/>
		<path class="st0" d="M17,24.9h0.6v0.5H17V24.9z M17,25.7h0.6v2.4H17V25.7z"/>
		<path class="st0" d="M18,25.7h0.5v0.2c0.1-0.1,0.3-0.3,0.7-0.3c0.2,0,0.5,0.1,0.7,0.3c0.2,0.3,0.2,0.7,0.2,0.9v1.3h-0.6v-1.2
			c0-0.2,0-0.8-0.5-0.8c-0.1,0-0.3,0.1-0.4,0.2s-0.1,0.4-0.1,0.6v1.2H18V25.7z"/>
		<path class="st0" d="M23.2,25.7v2c0,1.2-0.9,1.4-1.3,1.4c-0.5,0-1-0.3-1.2-0.8h0.7c0.2,0.3,0.5,0.3,0.6,0.3c0.3,0,0.7-0.2,0.7-0.8
			l0,0c-0.1,0.1-0.3,0.4-0.8,0.4c-0.6,0-1.2-0.5-1.2-1.3s0.6-1.3,1.2-1.3c0.5,0,0.7,0.3,0.8,0.4l0,0v-0.3
			C22.7,25.7,23.2,25.7,23.2,25.7z M21.9,26.2c-0.4,0-0.7,0.3-0.7,0.7c0,0.5,0.4,0.8,0.7,0.8c0.4,0,0.7-0.3,0.7-0.8
			C22.6,26.6,22.3,26.2,21.9,26.2z"/>
		<path class="st0" d="M24.9,24.9h0.7c0.8,0,1.1,0.2,1.3,0.4c0.3,0.3,0.5,0.7,0.5,1.3c0,0.6-0.3,1.1-0.8,1.4
			c-0.3,0.2-0.7,0.2-1.1,0.2h-0.8v-3.3H24.9z M25.5,27.6h0.1c0.3,0,0.5,0,0.8-0.2s0.5-0.5,0.5-0.9c0-0.3-0.1-0.6-0.3-0.8
			c-0.2-0.2-0.6-0.3-0.9-0.3h-0.1v2.2H25.5z"/>
		<path class="st0" d="M27.9,25.7h0.5v0.2l0,0c0.1-0.2,0.2-0.3,0.5-0.3l0,0v0.6c-0.5,0-0.5,0.4-0.5,0.6v1.4h-0.6v-2.5H27.9z"/>
		<path class="st0" d="M29.8,27.2c0,0.2,0.3,0.5,0.7,0.5c0.3,0,0.5-0.1,0.6-0.3h0.6c-0.1,0.4-0.6,0.8-1.2,0.8
			c-0.7,0-1.3-0.6-1.3-1.3c0-0.7,0.5-1.3,1.3-1.3s1.3,0.7,1.3,1.3c0,0.1,0,0.2,0,0.3H29.8z M31.1,26.7c-0.1-0.4-0.3-0.6-0.7-0.6
			c-0.2,0-0.6,0.1-0.7,0.6H31.1z"/>
		<path class="st0" d="M34.5,28.1H34v-0.3c-0.2,0.2-0.5,0.4-0.9,0.4c-0.6,0-1.2-0.5-1.2-1.3c0-0.7,0.5-1.3,1.2-1.3
			c0.5,0,0.8,0.4,0.8,0.4l0,0v-0.3h0.5v2.4H34.5z M33.3,26.2c-0.5,0-0.7,0.4-0.7,0.8s0.3,0.8,0.7,0.8S34,27.5,34,27
			C34,26.4,33.6,26.2,33.3,26.2z"/>
		<path class="st0" d="M35,25.7h0.5v0.2l0,0c0-0.1,0.2-0.3,0.6-0.3c0.1,0,0.5,0,0.7,0.4c0.3-0.4,0.6-0.4,0.8-0.4
			c0.5,0,0.7,0.3,0.8,0.4s0.2,0.4,0.2,0.7v1.4H38v-1.4c0-0.1,0-0.6-0.5-0.6c-0.2,0-0.3,0.1-0.4,0.2C37,26.4,37,26.7,37,26.8V28h-0.6
			v-1.4c0-0.3-0.1-0.6-0.5-0.6c-0.5,0-0.5,0.5-0.5,0.8V28H35V25.7z"/>
		<path class="st0" d="M40.1,26.4c0-0.2-0.2-0.2-0.2-0.2c-0.1,0-0.2,0.1-0.2,0.2s0.1,0.2,0.4,0.3c0.3,0.1,0.7,0.2,0.7,0.7
			s-0.4,0.9-0.9,0.9c-0.2,0-0.5-0.1-0.7-0.3c-0.1-0.2-0.2-0.4-0.2-0.5h0.6c0,0.1,0.1,0.3,0.3,0.3s0.3-0.1,0.3-0.2
			c0-0.2-0.1-0.2-0.5-0.4C39.3,27,39,26.8,39,26.4c0-0.5,0.4-0.8,0.8-0.8c0.4,0,0.8,0.3,0.8,0.7L40.1,26.4L40.1,26.4z"/>
	</g>
	<g>
		<path class="st0" d="M47.2,24.6c-0.1,0.3-0.3,0.4-0.6,0.4l0.1-0.2c-0.1,0-0.2,0-0.3,0c-0.2,0-0.4,0-0.8,0.1
			C45.2,25,45,25,44.9,25.1l-0.2,0.8c-0.1,0.2-0.2,0.4-0.3,0.6c-0.1,0.1-0.3,0.4-0.5,0.8c-0.2,0.3-0.3,0.6-0.4,0.9l-0.4-0.1
			c0-0.2,0.2-0.4,0.4-0.8c0.3-0.5,0.5-0.8,0.6-1c0.2-0.4,0.3-0.8,0.3-1.2l0,0l-1.2,0.3c-0.2,0.1-0.4,0.2-0.6,0.2
			c-0.1,0-0.1,0-0.2-0.1c0-0.1-0.1-0.1-0.1-0.2l0.1-0.2c0.1,0,0.2-0.1,0.2-0.1h0.1c0.1,0,0.1,0,0.1,0c0.4,0,0.8-0.1,1.3-0.2
			c0.3-0.1,0.7-0.2,1.3-0.4c0.5-0.1,0.9-0.2,1.3-0.2c0.1,0,0.1,0,0.2,0C47.2,24.5,47.2,24.6,47.2,24.6z"/>
		<path class="st0" d="M48.6,27.2c0,0.3-0.2,0.6-0.7,0.7c-0.3,0.1-0.7,0.2-1.1,0.2c-0.8,0-1.2-0.2-1.2-0.6c0-0.3,0.3-0.5,0.8-0.8
			c0.5-0.2,0.8-0.3,1.2-0.3c0.3,0,0.5,0.1,0.7,0.2C48.5,26.7,48.6,27,48.6,27.2z M48.3,27.2c0-0.2-0.1-0.3-0.2-0.4
			c-0.1-0.1-0.3-0.1-0.5-0.1c-0.3,0-0.6,0.1-0.9,0.2c-0.3,0.2-0.6,0.4-0.7,0.6c0.2,0.2,0.5,0.3,0.8,0.3s0.6-0.1,0.9-0.2
			C48.1,27.6,48.3,27.4,48.3,27.2z"/>
		<path class="st0" d="M50.8,26.8c0,0.1,0,0.2-0.1,0.4c0,0.1,0,0.2,0,0.2c0,0.5,0,0.9-0.1,1.2c-0.2,1.1-0.7,1.6-1.6,1.6
			c-0.2,0-0.4,0-0.6-0.1C48.1,30,48,29.9,48,29.7c0,0,0-0.1,0-0.2h0c0.1,0.1,0.2,0.2,0.4,0.3c0.2,0.1,0.4,0.1,0.5,0.1
			c0.4,0,0.7-0.2,1-0.6c0.2-0.3,0.4-0.7,0.4-1.1c0-0.1,0-0.2-0.1-0.3c-0.1,0-0.1,0-0.2,0h-0.1h-0.1c-0.3,0-0.6,0-0.7-0.1
			c-0.3-0.1-0.4-0.2-0.4-0.4c0-0.3,0.2-0.6,0.5-0.8c0.3-0.2,0.7-0.3,1-0.3C50.6,26.3,50.8,26.4,50.8,26.8z M50.5,26.7
			c0-0.1-0.1-0.2-0.3-0.2s-0.4,0.1-0.7,0.3c-0.3,0.2-0.4,0.4-0.4,0.6s0.2,0.3,0.6,0.3c0.1,0,0.2,0,0.3,0c0.2,0,0.2-0.1,0.2-0.2v-0.1
			v-0.1c0,0,0.1-0.2,0.2-0.4C50.5,26.8,50.5,26.8,50.5,26.7z"/>
		<path class="st0" d="M53.2,27.8c-0.1,0.1-0.3,0.2-0.7,0.2c-0.3,0-0.5,0.1-0.8,0.1c-0.6,0-0.8-0.2-0.8-0.5c0-0.4,0.3-0.7,0.9-1
			c0.2-0.1,0.4-0.2,0.6-0.2c0.2,0,0.4,0.1,0.4,0.1c0.1,0,0.2,0.2,0.2,0.4c0,0.2-0.1,0.3-0.3,0.4s-0.4,0.1-0.6,0.1
			c-0.3,0-0.5,0-0.7-0.1c-0.2,0.1-0.2,0.2-0.2,0.3c0,0.2,0.2,0.3,0.6,0.3c0.1,0,0.3,0,0.5,0C52.8,27.8,53.1,27.8,53.2,27.8z
			 M52.7,26.9c-0.1-0.1-0.2-0.2-0.4-0.2c-0.1,0-0.2,0-0.3,0.1c0,0-0.1,0-0.3,0.1c0.1,0.2,0.2,0.2,0.4,0.2
			C52.4,27.2,52.6,27.1,52.7,26.9z"/>
		<path class="st0" d="M55.6,25.2c0,0.1,0,0.2-0.1,0.3c0,0-0.1,0.2-0.3,0.4c0.1,0.1,0.2,0.1,0.3,0.2s0.1,0.2,0.1,0.3v0.1
			c0,0-0.1,0-0.2-0.1c-0.1,0-0.2,0-0.2,0c-0.2,0-0.4,0.2-0.8,0.6c-0.3,0.4-0.5,0.7-0.5,0.9c0,0.2,0.1,0.3,0.4,0.4
			c0.2,0,0.4,0.1,0.6,0.1c0.1,0,0.2,0,0.3,0c0,0,0,0,0,0.1c-0.2,0.1-0.4,0.1-0.6,0.1c-0.7,0-1.1-0.2-1.1-0.5c0-0.2,0.2-0.5,0.6-0.9
			l0.4-0.5h-0.2c-0.1,0-0.2,0-0.3,0.1c-0.2,0.1-0.4,0.1-0.4,0.1c-0.1,0-0.1,0-0.2-0.1l-0.1-0.1c0-0.1,0.1-0.2,0.4-0.2h0.1
			c0.1,0,0.1,0,0.1,0c0.2,0,0.5,0,0.6-0.1c0.2-0.1,0.3-0.2,0.4-0.4c0-0.1,0.1-0.3,0.3-0.6c0,0,0.1,0,0.1,0.1
			C55.5,25.1,55.6,25.1,55.6,25.2z"/>
		<path class="st0" d="M58.8,26.6c0,0.2-0.1,0.4-0.3,0.8s-0.3,0.6-0.3,0.7s0,0.2,0.1,0.3c-0.1,0.1-0.2,0.1-0.3,0.1s-0.2-0.1-0.2-0.2
			s0.1-0.4,0.3-0.8s0.3-0.7,0.3-0.8c0,0,0,0,0-0.1v-0.1c-0.5,0.1-1,0.2-1.4,0.6c-0.5,0.3-0.8,0.7-1,1.1c-0.1,0-0.2-0.1-0.3-0.1
			c0-0.1,0.1-0.2,0.3-0.5c0.1-0.1,0.3-0.4,0.6-0.8c0.2-0.3,0.4-0.6,0.5-0.7c0,0,0.1-0.3,0.3-0.7c0.1-0.3,0.2-0.5,0.4-0.6
			c0,0,0.1,0,0.1,0.1L58,25c0,0-0.3,0.6-0.8,1.8c0.3-0.1,0.5-0.2,0.7-0.3c0.4-0.2,0.6-0.2,0.7-0.2c0.1,0,0.1,0,0.1,0
			C58.7,26.3,58.8,26.5,58.8,26.6z"/>
		<path class="st0" d="M61.1,27.8C61,27.9,60.8,28,60.4,28c-0.3,0-0.5,0.1-0.8,0.1c-0.6,0-0.8-0.2-0.8-0.5c0-0.4,0.3-0.7,0.9-1
			c0.2-0.1,0.4-0.2,0.6-0.2c0.2,0,0.4,0.1,0.4,0.1c0.1,0,0.2,0.2,0.2,0.4c0,0.2-0.1,0.3-0.3,0.4s-0.4,0.1-0.6,0.1
			c-0.3,0-0.5,0-0.7-0.1c-0.2,0.1-0.2,0.2-0.2,0.3c0,0.2,0.2,0.3,0.6,0.3c0.1,0,0.3,0,0.5,0C60.7,27.8,61,27.8,61.1,27.8z
			 M60.6,26.9c-0.1-0.1-0.2-0.2-0.4-0.2c-0.1,0-0.2,0-0.3,0.1c0,0-0.1,0-0.3,0.1c0.1,0.2,0.2,0.2,0.4,0.2
			C60.3,27.2,60.5,27.1,60.6,26.9z"/>
		<path class="st0" d="M63.3,27l-0.8-0.3c-0.2,0-0.4,0.1-0.5,0.4c-0.1,0.1-0.1,0.3-0.3,0.6c-0.1,0.3-0.3,0.5-0.6,0.5
			c0-0.1,0.1-0.3,0.3-0.6c0.2-0.3,0.3-0.4,0.3-0.6c0-0.1,0-0.3,0.1-0.5c0-0.1,0-0.2,0.1-0.3C62,26.1,62,26,62.1,26h0.1l0.1,0.3
			c0,0.1,0.1,0.1,0.2,0.1h0.2h0.1C63.1,26.6,63.3,26.7,63.3,27z"/>
	</g>
</g>
<path class="st1" d="M44.1,29.5c6.9-1.4,13.7-0.7,17.2,0"/>
<g>
	<polygon class="st0" points="11.2,7.7 23.1,7.7 23.8,6 11.8,6 	"/>
	<polygon class="st0" points="24.5,7.8 32.2,7.7 32.6,6.1 25,6.1 	"/>
	<polygon class="st0" points="20.6,19.1 28.3,19 28.7,17.4 21.1,17.4 	"/>
	<polygon class="st0" points="29.6,19.1 37.7,19.1 38.3,17.4 30.1,17.4 	"/>
	<polygon class="st0" points="7.3,19.1 10.9,8.6 14.4,8.6 10.8,19.2 	"/>
	<polygon class="st0" points="11.6,19.1 15.2,8.6 18.7,8.6 15.1,19.2 	"/>
	<polygon class="st0" points="15.8,19.1 19.4,8.6 22.9,8.6 19.3,19.2 	"/>
	<polygon class="st0" points="30.3,16.5 34,6 37.5,6 33.8,16.6 	"/>
	<polygon class="st0" points="35.1,16.5 38.7,6 42.2,6 38.6,16.6 	"/>
	<polygon class="st0" points="25.7,16.6 27.5,11.2 31,11.2 29.2,16.6 	"/>
	<polygon class="st0" points="22.3,14 24.1,8.6 27.6,8.6 25.8,14 	"/>
	<path class="st0" d="M7.2,20.8v0.5h0.7v0.3H7.2v0.9H6.9v-2H8v0.3C8,20.8,7.2,20.8,7.2,20.8z"/>
	<path class="st0" d="M10.1,20.8v0.5H11v0.3h-0.8v0.7H11v0.3H9.8v-2H11v0.3L10.1,20.8L10.1,20.8z"/>
	<path class="st0" d="M13,22.2v-1.4h0.1c0.3,0,0.4,0,0.6,0.1c0.2,0.1,0.3,0.3,0.3,0.6c0,0.2-0.1,0.4-0.3,0.6
		c-0.2,0.1-0.3,0.1-0.6,0.1C13.1,22.2,13,22.2,13,22.2z M12.7,22.5h0.4c0.4,0,0.6,0,0.8-0.2c0.3-0.2,0.4-0.5,0.4-0.8
		s-0.1-0.6-0.4-0.8c-0.2-0.1-0.4-0.2-0.8-0.2h-0.5v2H12.7z"/>
	<path class="st0" d="M16.4,20.8v0.5h0.8v0.3h-0.8v0.7h0.9v0.3h-1.2v-2h1.2v0.3L16.4,20.8L16.4,20.8z"/>
	<path class="st0" d="M19.4,21.5v-0.6h0.1c0.3,0,0.5,0.1,0.5,0.3c0,0.2-0.2,0.3-0.5,0.3C19.5,21.5,19.4,21.5,19.4,21.5z M19.8,21.7
		c0.3-0.1,0.5-0.3,0.5-0.6c0-0.2-0.1-0.4-0.3-0.5c-0.1-0.1-0.3-0.1-0.6-0.1H19v2h0.3v-0.8h0.1l0.6,0.8h0.4L19.8,21.7z"/>
	<path class="st0" d="M23.1,21.8h-0.7l0.3-0.7L23.1,21.8z M23.2,22l0.2,0.5h0.4l-1-2.1l-1.1,2.1h0.4l0.2-0.5H23.2z"/>
	<path class="st0" d="M25.8,22.2h0.6v0.3h-1v-2h0.3v1.7H25.8z"/>
	<path class="st0" d="M31.6,21.1c-0.2-0.2-0.4-0.2-0.6-0.2c-0.4,0-0.8,0.3-0.8,0.8c0,0.4,0.4,0.7,0.8,0.7c0.2,0,0.4-0.1,0.6-0.2v0.4
		c-0.2,0.1-0.4,0.1-0.6,0.1c-0.6,0-1.1-0.4-1.1-1s0.5-1,1.1-1c0.2,0,0.4,0,0.6,0.1V21.1z"/>
	<path class="st0" d="M33.5,21.5v-0.6h0.1c0.3,0,0.5,0.1,0.5,0.3C34.1,21.4,33.9,21.5,33.5,21.5C33.6,21.5,33.5,21.5,33.5,21.5z
		 M33.9,21.7c0.3-0.1,0.5-0.3,0.5-0.6c0-0.2-0.1-0.4-0.3-0.5c-0.1-0.1-0.3-0.1-0.6-0.1h-0.4v2h0.3v-0.8h0.1l0.6,0.8h0.4L33.9,21.7z"
		/>
	<path class="st0" d="M36.5,20.8v0.5h0.8v0.3h-0.8v0.7h0.9v0.3h-1.2v-2h1.2v0.3L36.5,20.8L36.5,20.8z"/>
	<path class="st0" d="M39.5,22.2v-1.4h0.1c0.3,0,0.4,0,0.6,0.1c0.2,0.1,0.3,0.3,0.3,0.6c0,0.2-0.1,0.4-0.3,0.6
		C40,22.2,39.9,22.2,39.5,22.2C39.6,22.2,39.5,22.2,39.5,22.2z M39.2,22.5h0.5c0.4,0,0.6,0,0.8-0.2c0.3-0.2,0.4-0.5,0.4-0.8
		s-0.1-0.6-0.4-0.8c-0.2-0.1-0.4-0.2-0.8-0.2h-0.5V22.5z"/>
	<path class="st0" d="M42.8,22.5h-0.3v-2h0.3V22.5z"/>
	<path class="st0" d="M45.4,22.5h-0.3v-1.7h-0.5v-0.3h1.3v0.3h-0.5V22.5z"/>
	<path class="st0" d="M49.5,21.8c0,0.2,0,0.3,0.1,0.3c0.1,0.1,0.2,0.2,0.4,0.2s0.3-0.1,0.4-0.2c0.1-0.1,0.1-0.2,0.1-0.3v-1.2h0.3
		v1.3c0,0.4-0.3,0.7-0.8,0.7s-0.8-0.3-0.8-0.7v-1.3h0.3V21.8z"/>
	<path class="st0" d="M52.6,20.4l1.2,1.5v-1.4h0.3v2.1l-1.2-1.5v1.4h-0.3V20.4z"/>
	<path class="st0" d="M61.5,20.4l1.2,1.5v-1.4H63v2.1l-1.2-1.5v1.4h-0.2L61.5,20.4L61.5,20.4z"/>
	<path class="st0" d="M56.1,22.5h-0.3v-2h0.3V22.5z"/>
	<path class="st0" d="M58.9,20.8c0.3,0,0.6,0.3,0.6,0.8c0,0.4-0.3,0.7-0.6,0.7s-0.6-0.3-0.6-0.7C58.3,21.1,58.5,20.8,58.9,20.8z
		 M58.9,20.5c-0.5,0-0.8,0.5-0.8,1c0,0.6,0.4,1,0.8,1c0.5,0,0.8-0.5,0.8-1S59.3,20.5,58.9,20.5z"/>
	<path class="st0" d="M43.6,10.2L44.3,6h1.6l0.3,2.6L47.4,6H49l-0.7,4.1h-1.2l0.2-1.3l0.1-0.6l0.2-0.7l0,0l-1.2,2.6h-0.9l-0.3-2.6
		l0,0v0.6L45,8.8l-0.2,1.4H43.6z"/>
	<path class="st0" d="M45.4,11.5c-0.6-0.1-1.2-0.1-1.4,0c-0.3,0.1-0.3,0.2-0.3,0.3c-0.1,0.5,1.6,0.3,1.5,1.7c-0.1,1-0.9,1.2-1.6,1.2
		c-0.9,0-1.7-0.2-1.7-0.3l0.2-0.8c0.2,0.1,0.3,0.1,0.4,0.1c0.2,0,0.5,0,0.7,0c0.3,0,0.8-0.2,0.8-0.4c0.1-0.6-1.5-0.4-1.5-1.6
		c0-0.7,0.7-1.3,1.8-1.2c0.9,0,1.3,0.2,1.3,0.2L45.4,11.5z"/>
	<path class="st0" d="M41.5,15.1h1.1L42,17.6c-0.1,0.4,0.1,0.8,0.5,0.8c0.5,0,0.7-0.2,0.8-0.8l0.5-2.5h1.1l-0.4,2.4
		c-0.2,1.3-1.2,1.8-2.3,1.8c-0.8,0-1.5-0.9-1.3-1.8L41.5,15.1z"/>
	<path class="st0" d="M48.8,10.1l0.4-2.7H50l-0.4,2.7H48.8z"/>
	<path class="st0" d="M52.6,8.1c0-0.1-0.9-0.1-1.2,0s-0.5,0.3-0.6,0.8c-0.1,0.4,0.2,0.7,0.3,0.7c0.2,0.1,0.8,0.1,1,0v0.6
		c0,0.1-0.7,0.1-1.1,0.1c-0.5,0-1.2-0.5-1-1.4c0.1-0.9,0.8-1.5,1.5-1.5s1.1,0.2,1.1,0.2V8.1z"/>
	<path class="st0" d="M52.6,10.1L53,7.4h0.8l-0.1,0.9h0.7l0.1-0.9h0.8l-0.4,2.7h-0.8l0.2-1h-0.7l-0.2,1H52.6z"/>
	<path class="st0" d="M55.3,10.1l0.4-2.7h0.8L56,10.1H55.3z"/>
	<path class="st0" d="M58.7,9.6c0,0-0.2,0.3-0.4,0.5c-0.1,0.1-0.4,0.1-0.8,0.1c-0.6,0-1.1-0.4-0.9-1.4C56.7,8,57.2,7.4,58,7.4
		c0.6,0,0.7,0,0.9,0.2l-0.1,0.5C58.5,8,58.1,8,57.9,8c-0.3,0-0.5,0.3-0.6,0.8c-0.1,0.4,0,0.7,0.4,0.7c0.2,0,0.4-0.1,0.4-0.3h-0.3
		l0.1-0.6H59L58.7,9.6z"/>
	<path class="st0" d="M60.7,9.1h-0.5l0.5-0.9V9.1z M59.6,10.1l0.1-0.4h1v0.4h0.8l-0.4-2.7h-0.8l-1.5,2.7H59.6z"/>
	<path class="st0" d="M63.6,8.9l0.1-0.6l0.1-0.9h0.7l-0.4,2.7h-0.7l-0.6-1.5l-0.1,0.6L62.6,10h-0.7l0.4-2.7H63L63.6,8.9z"/>
	<path class="st0" d="M46.6,18l0.1-0.6l0.1-0.8h0.7l-0.4,2.7h-0.7l-0.6-1.5l-0.1,0.6l-0.1,0.8H45l0.4-2.7H46L46.6,18z"/>
	<path class="st0" d="M47.5,19.2l0.4-2.7h0.7l-0.4,2.7H47.5z"/>
	<path class="st0" d="M48.9,16.6h0.7l0.1,1.8l0.6-1.8H51l-1,2.6h-0.7L48.9,16.6z"/>
	<path class="st0" d="M51,19.2l0.4-2.7h1.8l-0.1,0.6H52v0.5h0.9l-0.1,0.6h-0.9l-0.1,0.4h1.1l-0.1,0.6H51z"/>
	<path class="st0" d="M54.2,17.2h0.3c0.2,0,0.3,0.1,0.2,0.3c0,0.2-0.2,0.3-0.4,0.3H54L54.2,17.2z M54.2,18.3c0.3,0,0.4,0.1,0.3,0.5
		c0,0.2,0,0.4,0,0.5h1v-0.1c-0.1,0-0.1-0.1-0.1-0.5c0.1-0.5-0.2-0.6-0.4-0.7c0.3-0.1,0.4-0.3,0.5-0.7c0.1-0.5-0.1-0.8-0.9-0.8h-1
		l-0.4,2.7h0.7l0.1-0.9H54.2z"/>
	<path class="st0" d="M57.8,17.2c-0.1-0.1-0.6-0.1-0.7-0.2c-0.1,0-0.4,0-0.4,0c-0.1,0.1-0.3,0.2-0.3,0.3c0,0.4,1.3,0.1,1.2,1.1
		c-0.1,0.6-0.7,0.9-1.3,0.9s-0.8-0.1-0.8-0.1l0.1-0.5c0,0.1,0.7,0,0.8,0c0.2,0,0.3-0.1,0.3-0.2c0.1-0.4-1.2-0.1-1.1-1.1
		c0.1-0.6,0.5-0.9,1.1-0.9s1.1,0.1,1.1,0.1L57.8,17.2z"/>
	<path class="st0" d="M57.7,19.2l0.4-2.7h0.7l-0.4,2.7H57.7z"/>
	<path class="st0" d="M59.1,16.6h2L61,17.3h-0.6l-0.3,2h-0.7l0.3-2H59L59.1,16.6z"/>
	<path class="st0" d="M62.4,19.2h-0.8l0.1-1l-0.6-1.7h0.8l0.3,1l0.7-1h0.9l-1.3,1.6L62.4,19.2z"/>
	<path class="st0" d="M45.6,11.9h1.8l-0.1,0.7h-0.6l-0.3,2h-0.6l0.3-2h-0.6L45.6,11.9z"/>
	<path class="st0" d="M48.5,13.6h-0.6l0.5-0.8L48.5,13.6z M47.2,14.6l0.2-0.4h1v0.4H49l-0.4-2.7h-0.7l-1.6,2.7H47.2z"/>
	<path class="st0" d="M49.6,11.9h1.8l-0.1,0.7h-0.6l-0.3,2h-0.6l0.3-2h-0.6L49.6,11.9z"/>
	<path class="st0" d="M51.4,14.6l0.3-2.7h1.6l-0.1,0.6h-1l-0.1,0.4H53l-0.1,0.6h-0.8l0,0.5h1L53,14.6H51.4z"/>
	<path class="st0" d="M63.8,19.1c-0.3,0-0.5-0.3-0.5-0.6c0-0.4,0.2-0.6,0.5-0.6s0.5,0.3,0.5,0.6C64.3,18.9,64.1,19.1,63.8,19.1z
		 M63.8,19.3c0.4,0,0.7-0.4,0.7-0.8c0-0.5-0.3-0.8-0.7-0.8c-0.4,0-0.7,0.4-0.7,0.8C63.1,19,63.4,19.3,63.8,19.3z M64,18.6
		c0.1,0,0.2-0.1,0.2-0.2c0-0.2-0.1-0.3-0.3-0.3h-0.4V19h0.2v-0.4h0.1L64,19h0.2L64,18.6z M63.7,18.4v-0.2h0.2c0.1,0,0.2,0,0.2,0.1
		s-0.1,0.1-0.2,0.1H63.7z"/>
</g>
</svg>
