<?xml version="1.0" encoding="utf-8"?>
<!-- Generator: Adobe Illustrator 21.0.0, SVG Export Plug-In . SVG Version: 6.00 Build 0)  -->
<svg version="1.1" id="Layer_1" xmlns="http://www.w3.org/2000/svg" xmlns:xlink="http://www.w3.org/1999/xlink" x="0px" y="0px"
	 viewBox="0 0 709.8 256.2" style="enable-background:new 0 0 709.8 256.2;" xml:space="preserve">
<style type="text/css">
	.st0{fill-rule:evenodd;clip-rule:evenodd;fill:#000222;}
	.st1{fill-rule:evenodd;clip-rule:evenodd;fill:#DD1100;}
	.st2{fill-rule:evenodd;clip-rule:evenodd;fill:#FFFFFF;}
	.st3{fill-rule:evenodd;clip-rule:evenodd;}
</style>
<g>
	<g>
		<g>
			<path class="st0" d="M143.3,101.4c-4.8-4.8-14.5-10.9-14.5-10.9s-1.9-11.2-3.2-15.4c8.7-8.4,10-9.6,18.3-17.7
				C144.5,73.4,144.2,81.7,143.3,101.4z"/>
			<path class="st0" d="M150,135.1c-5.8,1.6-6.4,1.9-12.2,3.5c-6.1-3.5-11.6-5.5-16.7-4.8c0.6-3.2,1.6-5.5,2.6-8.3
				C134.6,123.8,142.6,129.6,150,135.1z"/>
			<path class="st0" d="M238.6,130.6c0,30-11.9,58.7-33.1,79.9c-6.1,6.1-12.8,11.4-19.9,15.9c0,0,0,0,0,0l-38.8-48.3l32.1,3.5
				c0,0,15.4,1.6,18.9,0c3.2-1.3,20.6-25.7,20.6-25.7s-49.8-31.5-66.8-48.8c1.9-29.2-2.2-68.1-2.2-67.8
				c-12.5,12.5-14.1,14.5-26.7,26c-5.5-17.7-8-23.8-13.5-41.4c-16.4,13.5-28.9,36.3-37.9,63c-2,2.2-3.9,4.5-5.7,6.9
				c-1.2,1.6-2.4,3.3-3.6,5c-2.4,3.4-4.7,7.1-7,10.8c-1.6,2.7-3.1,5.4-4.6,8.2c-10.4,19.6-19,42.1-26.4,62.3c0-0.1-0.1-0.2-0.1-0.2
				c-7.4-15.2-11.3-32-11.3-49.3c0-30,11.9-58.8,33.1-80s50-33.1,79.9-33.1c30,0,58.8,11.9,80,33.1
				C226.7,71.8,238.6,100.6,238.6,130.6z"/>
			<path class="st1" d="M143.3,101.4c-4.8-4.8-14.5-10.9-14.5-10.9s-1.9-11.2-3.2-15.4c8.7-8.4,10-9.6,18.3-17.7
				C144.5,73.4,144.2,81.7,143.3,101.4z"/>
			<path class="st1" d="M150,135.1c-5.8,1.6-6.4,1.9-12.2,3.5c-6.1-3.5-11.6-5.5-16.7-4.8c0.6-3.2,1.6-5.5,2.6-8.3
				C134.6,123.8,142.6,129.6,150,135.1z"/>
			<path class="st1" d="M238.6,130.6c0,30-11.9,58.7-33.1,79.9c-6.1,6.1-12.8,11.4-19.9,15.9c0,0,0,0,0,0l-38.8-48.3l32.1,3.5
				c0,0,15.4,1.6,18.9,0c3.2-1.3,20.6-25.7,20.6-25.7s-49.8-31.5-66.8-48.8c1.9-29.2-2.2-68.1-2.2-67.8
				c-12.5,12.5-14.1,14.5-26.7,26c-5.5-17.7-8-23.8-13.5-41.4c-16.4,13.5-28.9,36.3-37.9,63c-2,2.2-3.9,4.5-5.7,6.9
				c-1.2,1.6-2.4,3.3-3.6,5c-2.4,3.4-4.7,7.1-7,10.8c-1.6,2.7-3.1,5.4-4.6,8.2c-10.4,19.6-19,42.1-26.4,62.3c0-0.1-0.1-0.2-0.1-0.2
				c-7.4-15.2-11.3-32-11.3-49.3c0-30,11.9-58.8,33.1-80s50-33.1,79.9-33.1c30,0,58.8,11.9,80,33.1
				C226.7,71.8,238.6,100.6,238.6,130.6z"/>
			<path class="st2" d="M143.3,101.4c-4.8-4.8-14.5-10.9-14.5-10.9s-1.9-11.2-3.2-15.4c8.7-8.4,10-9.6,18.3-17.7
				C144.5,73.4,144.2,81.7,143.3,101.4z"/>
			<path class="st2" d="M150,135.1c-5.8,1.6-6.4,1.9-12.2,3.5c-6.1-3.5-11.6-5.5-16.7-4.8c0.6-3.2,1.6-5.5,2.6-8.3
				C134.6,123.8,142.6,129.6,150,135.1z"/>
			<path class="st3" d="M150,135.1c-5.8,1.6-6.4,1.9-12.2,3.5c-6.1-3.5-11.6-5.5-16.7-4.8c0.6-3.2,1.6-5.5,2.6-8.3
				C134.6,123.8,142.6,129.6,150,135.1z"/>
			<path class="st0" d="M23.8,179.9c0,0.1,0.1,0.2,0.1,0.2c7.4-20.2,16-42.7,26.4-62.3C39.9,137.3,31.2,159.7,23.8,179.9z
				 M146.8,178.1l38.8,48.3c0,0,0,0,0,0L146.8,178.1z"/>
			<path class="st3" d="M214.4,41.8C190.8,18.2,158.9,5,125.6,5C92.3,5,60.3,18.2,36.8,41.8C13.2,65.3,0,97.3,0,130.6
				c0,33.3,13.2,65.2,36.8,88.8c23.6,23.6,55.5,36.8,88.8,36.8c33.3,0,65.3-13.2,88.8-36.8c23.5-23.5,36.8-55.5,36.8-88.8
				C251.2,97.3,237.9,65.3,214.4,41.8z M165.7,236.9c-69.3,25-119.3-21.1-130-37.2c0-0.1,0.1-0.3,0.1-0.4
				c9.6-40.7,21.5-89.3,40.6-103.7c10-17.4,12.9-43.1,30.8-56.5c4.5,13.5,11.6,41.4,16.4,54.9c21.2,21.2,53.3,47.5,74.8,58.5
				c2.2,1.3,5.1,10.3,5.1,10.3l-8.7,10.9l-92.5-9.3c-2.1-0.2-4.1-0.2-6.2-0.2c-5.9,0-12,0.7-19.2,1.8c4.5-11.2,14.1-20.2,14.1-20.2
				s-9-5.5-15.7-6.4c1.9-4.5,7.1-10.3,8.4-11.9c-2.6,0.9-21.2,9.3-23.1,16.4c9,2.2,15.4,5.1,15.4,5.1s-9.9,10-11.9,27.3
				c0,0,29.6-4.5,51.7-1.6c0.6,0.3,0.9,0.3,1.3,0.3l11.6,0.3l36.7,61.1L165.7,236.9C165.8,236.9,165.8,236.9,165.7,236.9z M125.6,75
				c8.7-8.4,10-9.6,18.3-17.7c0.6,16,0.3,24.4-0.6,44c-4.8-4.8-14.5-10.9-14.5-10.9S126.9,79.2,125.6,75z M205.5,210.5
				c-6.1,6.1-12.8,11.4-19.9,15.9c0,0,0,0,0,0l-38.8-48.3l32.1,3.5c0,0,15.4,1.6,18.9,0c3.2-1.3,20.6-25.7,20.6-25.7
				s-49.8-31.5-66.8-48.8c1.9-29.2-2.2-68.1-2.2-67.8c-12.5,12.5-14.1,14.5-26.7,26c-5.5-17.7-8-23.8-13.5-41.4
				c-16.4,13.5-28.9,36.3-37.9,63c-2,2.2-3.9,4.5-5.7,6.9c-1.2,1.6-2.4,3.3-3.6,5c-2.4,3.4-4.7,7.1-7,10.8c-1.6,2.7-3.1,5.4-4.6,8.2
				c-0.6,1.2-1.3,2.5-1.9,3.7c-9.6,18.7-17.5,39.6-24.5,58.6c0-0.1-0.1-0.2-0.1-0.2c-7.4-15.2-11.3-32-11.3-49.3
				c0-30,11.9-58.8,33.1-80s50-33.1,79.9-33.1c30,0,58.8,11.9,80,33.1c21.2,21.2,33.1,50,33.1,80
				C238.6,160.6,226.7,189.3,205.5,210.5z"/>
			<path class="st2" d="M77.1,165.9c7.2-1.2,13.2-1.8,19.2-1.8c2.1,0,4.1,0.1,6.2,0.2l92.5,9.3l8.7-10.9c0,0-2.9-9-5.1-10.3
				c-21.5-10.9-53.6-37.3-74.8-58.5c-4.8-13.5-11.9-41.4-16.4-54.9c-18,13.5-20.9,39.2-30.8,56.5c-19.2,14.4-31,63-40.6,103.7
				c0,0.1,0,0.3-0.1,0.4c10.7,16.1,60.7,62.2,130,37.2c0,0,0,0,0.1,0l-0.3-0.5l-36.7-61.1l-11.6-0.3c-0.3,0-0.6,0-1.3-0.3
				c-22.2-2.9-51.7,1.6-51.7,1.6c1.9-17.3,11.9-27.3,11.9-27.3s-6.4-2.9-15.4-5.1c1.9-7.1,20.6-15.4,23.1-16.4
				c-1.3,1.6-6.4,7.4-8.4,11.9c6.8,0.9,15.7,6.4,15.7,6.4S81.6,154.7,77.1,165.9z M123.7,125.4c10.9-1.6,18.9,4.2,26.3,9.6
				c-5.8,1.6-6.4,1.9-12.2,3.5c-6.1-3.5-11.6-5.5-16.7-4.8C121.7,130.6,122.7,128.3,123.7,125.4z"/>
		</g>
	</g>
	<g>
		<g>
			<polygon points="312.1,26.4 326.6,26.4 339.9,88 350.1,26.4 362.5,26.4 347.8,105.5 333.5,105.5 319.4,40.3 305.2,105.5 
				290.9,105.5 276.2,26.4 288.6,26.4 298.8,88 			"/>
			<path d="M400,78.5c0-11.2-1.5-17.5-11.4-17.5c-9.9,0-11.4,6.4-11.4,17.5c0,11.2,1.5,17.5,11.4,17.5C398.6,96,400,89.6,400,78.5
				 M365.5,78.5c0-16,4.6-27.3,23.1-27.3c18.6,0,23.1,11.3,23.1,27.3c0,16.1-4.6,27.3-23.1,27.3C370.1,105.8,365.5,94.5,365.5,78.5"
				/>
			<path d="M420.8,91.7V26.4h11.7v65.2c0,2.9,1,4,4.4,4v9.5c0,0-1,0.2-2.3,0.2C425,105.3,420.8,100.7,420.8,91.7"/>
			<path d="M480.6,36.3c-1.9-0.6-4.1-1-7.7-1c-5.2,0-9.4,2-9.4,7.9v9.3h14.7v9.9h-14.7v42.2h-11.7V62.3h-9.5v-7.2l9.5-2.7V42.1
				c0-11.2,6.3-17,20.2-17c3.4,0,6.6,0.5,8.5,1.3V36.3z"/>
			<path d="M515,61.8c-1.3-0.4-3.3-0.6-5.7-0.6c-6.1,0-10.7,1.5-13.3,3.1v40.2h-11.7V52.4h6.9l1.9,4.2c3.9-3.1,9.7-5.4,16.5-5.4
				c2.2,0,4.1,0.3,5.5,0.6V61.8z"/>
			<path d="M538.2,80.5c-5.2,0.6-8.2,2.6-8.2,8c0,4,1.7,7.7,8,7.7c4.7,0,7.9-1.4,11.2-3.4V79.2L538.2,80.5z M538.9,61.2
				c-6.8,0-12.3,1.6-16.3,3.1V54.2c4.1-1.8,10.9-3,17.1-3c17.1,0,21.1,7.5,21.1,18.6v34.8h-6.9l-1.9-4.2c-4.2,3.4-10,5.4-15.7,5.4
				c-13.4,0-17.9-8.3-17.9-16.7c0-11.3,7.3-16.1,19.1-17l11.7-0.9v-2.6C549.1,63.3,546.6,61.2,538.9,61.2"/>
			<path d="M632,67.7c0-4.9-2.8-6.7-7.4-6.7c-5.1,0-8.5,1.6-11.3,3.2c0.2,1.9,0.3,3.6,0.3,5.7v34.5H602V67.7c0-4.9-2.7-6.7-7.4-6.7
				c-4.8,0-8.2,1.5-10.9,3v40.4H572V52.4h6.9l1.9,4.2c4.4-3.4,10.6-5.4,15.7-5.4c7,0,11.2,2,13.3,5.2c4.7-3.3,10.9-5.2,16.7-5.2
				c12.3,0,17.2,6.7,17.2,16.6v36.8H632V67.7z"/>
		</g>
		<g>
			<polygon points="287.8,198 321.8,198 321.8,208.8 276.2,208.8 276.2,130.6 287.8,130.6 			"/>
			<path d="M343.9,184.7c-5.2,0.6-8.2,2.6-8.2,8c0,4,1.7,7.7,8,7.7c4.7,0,7.9-1.4,11.2-3.4v-13.5L343.9,184.7z M344.6,165.4
				c-6.8,0-12.3,1.6-16.3,3.1v-10.1c4.1-1.8,10.9-3,17.1-3c17.1,0,21.1,7.5,21.1,18.6v34.8h-6.9l-1.9-4.2c-4.2,3.4-10,5.4-15.7,5.4
				c-13.4,0-17.9-8.3-17.9-16.7c0-11.3,7.3-16.1,19.1-17l11.7-0.9v-2.6C354.9,167.5,352.4,165.4,344.6,165.4"/>
			<path d="M409.6,208.8V173c0-5.3-2.7-7.7-8.2-7.7c-5.4,0-9.2,1.5-12,3v40.4h-11.7v-52.1h6.9l1.9,4.2c5.3-3.6,11.3-5.4,16.9-5.4
				c13.2,0,17.9,6.6,17.9,16.6v36.8H409.6z"/>
			<path d="M452.1,185.7c8.8,0,10.7-4.6,10.7-10.5s-2-10.5-10.7-10.5c-8.8,0-10.7,4.6-10.7,10.5S443.3,185.7,452.1,185.7
				 M448.4,210.3c-5.3,0.9-10.1,3.3-10.1,8.3c0,5.8,4.2,8.1,13.8,8.1c9.2,0,17.2-2.7,17.2-9c0-3.5-1.8-5.1-6-5.6L448.4,210.3z
				 M452.1,195c-2.2,0-4.3-0.1-6-0.4c-0.8,0.8-1.5,2-1.5,3c0,1.8,0.9,2.7,3.1,3l18.9,2.3c10.3,1.3,14,5.9,14,14.6
				c0,13.4-14.2,18.6-29.3,18.6c-14,0-24.1-4.5-24.1-15.2c0-7.1,5.3-11.3,10.8-12.9v-0.1c-2.6-1.5-4.1-4.4-4.1-7.2
				c0-3.9,2.3-6.6,4.7-8.4c-5.9-3.3-8.3-9.4-8.3-17c0-11.9,5.8-19.8,21.8-19.8c3.8,0,6.9,0.4,9.6,1.3h18v7.4l-7.4,2.1
				c1,2.7,1.6,5.7,1.6,9.1C473.9,187.1,468,195,452.1,195"/>
			<path d="M498.1,156.6v35.7c0,5.3,2.7,7.7,8.2,7.7c5.4,0,9.2-1.5,12-3v-40.4H530v52.1h-6.9l-1.9-4.2c-5.3,3.6-11.3,5.4-16.9,5.4
				c-13.2,0-17.9-6.6-17.9-16.6v-36.8H498.1z"/>
			<path d="M557.3,184.7c-5.2,0.6-8.2,2.6-8.2,8c0,4,1.7,7.7,8,7.7c4.7,0,7.9-1.4,11.2-3.4v-13.5L557.3,184.7z M558.1,165.4
				c-6.8,0-12.3,1.6-16.3,3.1v-10.1c4.1-1.8,10.9-3,17.1-3c17.1,0,21.1,7.5,21.1,18.6v34.8h-6.9l-1.9-4.2c-4.2,3.4-10,5.4-15.7,5.4
				c-13.4,0-17.9-8.3-17.9-16.7c0-11.3,7.3-16.1,19.1-17l11.7-0.9v-2.6C568.3,167.5,565.8,165.4,558.1,165.4"/>
			<path d="M610.9,185.7c8.8,0,10.7-4.6,10.7-10.5s-2-10.5-10.7-10.5c-8.8,0-10.7,4.6-10.7,10.5S602.2,185.7,610.9,185.7
				 M607.3,210.3c-5.3,0.9-10.1,3.3-10.1,8.3c0,5.8,4.2,8.1,13.8,8.1c9.2,0,17.2-2.7,17.2-9c0-3.5-1.8-5.1-6-5.6L607.3,210.3z
				 M610.9,195c-2.2,0-4.3-0.1-6-0.4c-0.8,0.8-1.5,2-1.5,3c0,1.8,0.9,2.7,3.1,3l18.9,2.3c10.3,1.3,14,5.9,14,14.6
				c0,13.4-14.2,18.6-29.3,18.6c-14,0-24.1-4.5-24.1-15.2c0-7.1,5.3-11.3,10.8-12.9v-0.1c-2.6-1.5-4.1-4.4-4.1-7.2
				c0-3.9,2.3-6.6,4.7-8.4c-5.9-3.3-8.3-9.4-8.3-17c0-11.9,5.8-19.8,21.8-19.8c3.8,0,6.9,0.4,9.6,1.3h18v7.4l-7.4,2.1
				c1,2.7,1.6,5.7,1.6,9.1C632.7,187.1,626.9,195,610.9,195"/>
			<path d="M656,178.8h20.8c0-7.1-0.4-13.3-9.5-13.3C658.8,165.5,656.4,171,656,178.8 M667.4,155.4c18.3,0,21.3,12.1,21.3,26.5
				c0,1.8-0.1,3.4-0.2,5.1H656c0.2,7.8,3,12.9,13.7,12.9c6.6,0,12-1.1,16.6-3.1v10c-5.9,2.5-12.7,3.2-18.3,3.2
				c-17.4,0-23.7-10.4-23.7-27.3C644.3,165.9,650.4,155.4,667.4,155.4"/>
			<g>
				<path d="M689,147.2h-3.5v-1.9h9.2v1.9h-3.5v9.5H689V147.2z M697.4,145.3h3.3l3,7.7l3-7.7h3.3v11.5h-2.1V148h-0.1l-3.2,8.8h-1.7
					l-3.2-8.8h-0.1v8.8h-2.1V145.3z"/>
			</g>
		</g>
	</g>
</g>
</svg>
